<svg width="48" height="48" viewBox="0 0 48 48" fill="none" xmlns="http://www.w3.org/2000/svg">
<path d="M23.9998 45.9086C26.251 45.9086 28.4802 45.4652 30.5601 44.6037C32.6399 43.7422 34.5298 42.4794 36.1216 40.8876C37.7135 39.2957 38.9762 37.4059 39.8377 35.326C40.6992 33.2462 41.1426 31.017 41.1426 28.7657V19.2343C41.1429 15.0229 39.5929 10.9588 36.7884 7.81716M6.85693 23.04V28.7657C6.85579 32.1404 7.85072 35.4404 9.71703 38.2521C11.5834 41.0638 14.238 43.2621 17.3484 44.5714M32.5712 4.38859C28.6339 2.11541 23.9548 1.49939 19.5632 2.67603C15.1717 3.85268 11.4274 6.72562 9.15408 10.6629C8.21742 12.2793 7.55693 14.0406 7.19979 15.8743" stroke="black" stroke-width="3" stroke-linecap="round" stroke-linejoin="round"/>
<path d="M22.2169 12.0343C23.4779 11.7725 24.7816 11.7971 26.0319 12.1062C27.2821 12.4154 28.4471 13.0012 29.4408 13.8205C30.4345 14.6398 31.2316 15.6717 31.7734 16.8401C32.3152 18.0085 32.5878 19.2836 32.5712 20.5714V26.0914M30.3769 33.2914C29.2103 34.5909 27.6747 35.503 25.9756 35.9057C24.2764 36.3085 22.4947 36.1826 20.869 35.545C19.2434 34.9074 17.8512 33.7885 16.8789 32.338C15.9066 30.8875 15.4005 29.1746 15.4283 27.4286V20.5714C15.4189 19.3936 15.6523 18.2265 16.1141 17.1429M23.9998 20.9486V26.6743" stroke="black" stroke-width="3" stroke-linecap="round" stroke-linejoin="round"/>
</svg>
