<svg width="30" height="30" viewBox="0 0 30 30" fill="none" xmlns="http://www.w3.org/2000/svg">
<path d="M20.4784 10.3409H19.1044C18.8056 10.3409 18.5214 10.4844 18.3456 10.7305L13.7401 17.1172L11.6542 14.2227C11.4784 13.9796 11.1972 13.8331 10.8954 13.8331H9.5214C9.33097 13.8331 9.21964 14.0499 9.33097 14.2051L12.9814 19.2676C13.0676 19.388 13.1813 19.4861 13.313 19.5537C13.4447 19.6214 13.5906 19.6567 13.7387 19.6567C13.8867 19.6567 14.0327 19.6214 14.1644 19.5537C14.2961 19.4861 14.4098 19.388 14.496 19.2676L20.6659 10.713C20.7802 10.5577 20.6689 10.3409 20.4784 10.3409Z" fill="white"/>
<path d="M15 1.875C7.75195 1.875 1.875 7.75195 1.875 15C1.875 22.248 7.75195 28.125 15 28.125C22.248 28.125 28.125 22.248 28.125 15C28.125 7.75195 22.248 1.875 15 1.875ZM15 25.8984C8.98242 25.8984 4.10156 21.0176 4.10156 15C4.10156 8.98242 8.98242 4.10156 15 4.10156C21.0176 4.10156 25.8984 8.98242 25.8984 15C25.8984 21.0176 21.0176 25.8984 15 25.8984Z" fill="white"/>
</svg>
