<svg width="672" height="364" viewBox="0 0 672 364" fill="none" xmlns="http://www.w3.org/2000/svg">
<rect x="169" width="308" height="187" rx="14" fill="white"/>
<path d="M488.08 205.596H202.391C199.739 205.592 197.196 204.349 195.321 202.138C193.446 199.927 192.391 196.93 192.388 193.803V30.7923C192.391 27.6659 193.446 24.6685 195.321 22.4578C197.196 20.247 199.739 19.0035 202.391 19H488.08C490.733 19.0035 493.275 20.247 495.151 22.4578C497.026 24.6685 498.081 27.6659 498.084 30.7923V193.803C498.081 196.93 497.026 199.927 495.151 202.138C493.275 204.349 490.733 205.592 488.08 205.596ZM202.391 20.3873C200.051 20.3904 197.808 21.4877 196.153 23.4383C194.498 25.3889 193.567 28.0337 193.565 30.7923V193.803C193.567 196.562 194.498 199.207 196.153 201.157C197.808 203.108 200.051 204.205 202.391 204.208H488.08C490.421 204.205 492.664 203.108 494.319 201.157C495.974 199.207 496.904 196.562 496.907 193.803V30.7923C496.904 28.0337 495.974 25.3889 494.319 23.4383C492.664 21.4877 490.421 20.3904 488.08 20.3873H202.391Z" fill="#3F3D56"/>
<path d="M247.26 59.5795C250.185 59.5795 252.556 56.7844 252.556 53.3365C252.556 49.8886 250.185 47.0935 247.26 47.0935C244.335 47.0935 241.964 49.8886 241.964 53.3365C241.964 56.7844 244.335 59.5795 247.26 59.5795Z" fill="#CCCCCC"/>
<path d="M247.26 83.1639C250.185 83.1639 252.556 80.3689 252.556 76.921C252.556 73.4731 250.185 70.678 247.26 70.678C244.335 70.678 241.964 73.4731 241.964 76.921C241.964 80.3689 244.335 83.1639 247.26 83.1639Z" fill="#CCCCCC"/>
<path d="M247.26 106.748C250.185 106.748 252.556 103.953 252.556 100.505C252.556 97.0575 250.185 94.2625 247.26 94.2625C244.335 94.2625 241.964 97.0575 241.964 100.505C241.964 103.953 244.335 106.748 247.26 106.748Z" fill="#CCCCCC"/>
<path d="M247.26 130.333C250.185 130.333 252.556 127.538 252.556 124.09C252.556 120.642 250.185 117.847 247.26 117.847C244.335 117.847 241.964 120.642 241.964 124.09C241.964 127.538 244.335 130.333 247.26 130.333Z" fill="#CCCCCC"/>
<path d="M336.409 177.502C339.334 177.502 341.705 174.707 341.705 171.259C341.705 167.811 339.334 165.016 336.409 165.016C333.484 165.016 331.113 167.811 331.113 171.259C331.113 174.707 333.484 177.502 336.409 177.502Z" fill="#CCCCCC"/>
<path d="M298.16 177.502C301.085 177.502 303.456 174.707 303.456 171.259C303.456 167.811 301.085 165.016 298.16 165.016C295.235 165.016 292.864 167.811 292.864 171.259C292.864 174.707 295.235 177.502 298.16 177.502Z" fill="#CCCCCC"/>
<path d="M415.26 177.502C418.185 177.502 420.556 174.707 420.556 171.259C420.556 167.811 418.185 165.016 415.26 165.016C412.335 165.016 409.964 167.811 409.964 171.259C409.964 174.707 412.335 177.502 415.26 177.502Z" fill="#CCCCCC"/>
<path d="M375.247 177.502C378.172 177.502 380.543 174.707 380.543 171.259C380.543 167.811 378.172 165.016 375.247 165.016C372.322 165.016 369.951 167.811 369.951 171.259C369.951 174.707 372.322 177.502 375.247 177.502Z" fill="#CCCCCC"/>
<path d="M447.919 54.0302H273.74C273.584 54.0302 273.434 53.9571 273.324 53.827C273.213 53.6969 273.151 53.5205 273.151 53.3365C273.151 53.1525 273.213 52.9761 273.324 52.846C273.434 52.7159 273.584 52.6428 273.74 52.6428H447.919C448.075 52.6428 448.225 52.7159 448.335 52.846C448.445 52.9761 448.507 53.1525 448.507 53.3365C448.507 53.5205 448.445 53.6969 448.335 53.827C448.225 53.9571 448.075 54.0302 447.919 54.0302Z" fill="#CCCCCC"/>
<path d="M447.919 77.6146H273.74C273.584 77.6146 273.434 77.5415 273.324 77.4114C273.213 77.2814 273.151 77.1049 273.151 76.921C273.151 76.737 273.213 76.5606 273.324 76.4305C273.434 76.3004 273.584 76.2273 273.74 76.2273H447.919C448.075 76.2273 448.225 76.3004 448.335 76.4305C448.445 76.5606 448.507 76.737 448.507 76.921C448.507 77.1049 448.445 77.2814 448.335 77.4114C448.225 77.5415 448.075 77.6146 447.919 77.6146Z" fill="#CCCCCC"/>
<path d="M447.919 101.199H273.74C273.584 101.199 273.434 101.126 273.324 100.996C273.213 100.866 273.151 100.689 273.151 100.505C273.151 100.321 273.213 100.145 273.324 100.015C273.434 99.8849 273.584 99.8118 273.74 99.8118H447.919C448.075 99.8118 448.225 99.8849 448.335 100.015C448.445 100.145 448.507 100.321 448.507 100.505C448.507 100.689 448.445 100.866 448.335 100.996C448.225 101.126 448.075 101.199 447.919 101.199Z" fill="#CCCCCC"/>
<path d="M447.919 124.784H273.74C273.584 124.784 273.434 124.711 273.324 124.581C273.213 124.451 273.151 124.274 273.151 124.09C273.151 123.906 273.213 123.73 273.324 123.6C273.434 123.47 273.584 123.396 273.74 123.396H447.919C448.075 123.396 448.225 123.47 448.335 123.6C448.445 123.73 448.507 123.906 448.507 124.09C448.507 124.274 448.445 124.451 448.335 124.581C448.225 124.711 448.075 124.784 447.919 124.784Z" fill="#CCCCCC"/>
<path d="M306.693 148.368H289.628C288.848 148.367 288.1 148.002 287.549 147.351C286.997 146.701 286.687 145.82 286.686 144.9V126.171C286.687 125.252 286.997 124.37 287.549 123.72C288.1 123.07 288.848 122.704 289.628 122.703H306.693C307.473 122.704 308.221 123.07 308.773 123.72C309.324 124.37 309.634 125.252 309.635 126.171V144.9C309.634 145.82 309.324 146.701 308.773 147.351C308.221 148.002 307.473 148.367 306.693 148.368Z" fill="#2C698D"/>
<path d="M344.941 148.368H327.876C327.096 148.367 326.348 148.001 325.797 147.351C325.245 146.701 324.935 145.82 324.934 144.9V102.586C324.935 101.667 325.245 100.785 325.797 100.135C326.348 99.485 327.096 99.1192 327.876 99.1182H344.941C345.721 99.1192 346.469 99.485 347.021 100.135C347.572 100.785 347.882 101.667 347.883 102.586V144.9C347.882 145.82 347.572 146.701 347.021 147.351C346.469 148.001 345.721 148.367 344.941 148.368Z" fill="#2C698D"/>
<path d="M383.779 148.368H366.714C365.934 148.367 365.186 148.001 364.634 147.351C364.083 146.701 363.772 145.819 363.771 144.9V79.0018C363.772 78.0822 364.083 77.2007 364.634 76.5505C365.186 75.9003 365.934 75.5345 366.714 75.5334H383.779C384.559 75.5345 385.306 75.9003 385.858 76.5505C386.41 77.2007 386.72 78.0822 386.721 79.0018V144.9C386.72 145.819 386.41 146.701 385.858 147.351C385.306 148.001 384.559 148.367 383.779 148.368Z" fill="#2C698D"/>
<path d="M423.793 148.368H406.728C405.948 148.367 405.2 148.002 404.649 147.351C404.097 146.701 403.787 145.82 403.786 144.9V56.1111C403.787 55.1916 404.097 54.31 404.649 53.6598C405.2 53.0096 405.948 52.6439 406.728 52.6428H423.793C424.573 52.6439 425.321 53.0096 425.873 53.6598C426.424 54.31 426.735 55.1916 426.735 56.1111V144.9C426.735 145.82 426.424 146.701 425.873 147.351C425.321 148.002 424.573 148.367 423.793 148.368Z" fill="#2C698D"/>
<path d="M529.996 168.322C529.327 168.32 528.66 168.241 528.004 168.087C527.884 168.059 527.764 168.028 527.644 167.996L383.536 128.443C381.971 128.014 380.931 126.853 381.117 125.743C381.196 125.416 381.35 125.121 381.561 124.891C381.773 124.66 382.035 124.503 382.317 124.437C383.013 124.211 383.745 124.192 384.449 124.381L529.451 160.079C532.716 160.882 534.983 163.244 534.611 165.455C534.417 166.613 533.552 167.51 532.177 167.982C531.467 168.215 530.733 168.33 529.996 168.322Z" fill="#3F3D56"/>
<path d="M499.468 162.85C500.214 163.367 501.047 163.684 501.908 163.781C502.769 163.877 503.638 163.75 504.453 163.407C505.268 163.065 506.009 162.516 506.625 161.8C507.24 161.083 507.715 160.216 508.015 159.26L529.039 159.777L523.215 148.878L504.143 150.058C502.747 149.569 501.247 149.701 499.928 150.429C498.609 151.157 497.562 152.429 496.986 154.006C496.41 155.583 496.344 157.354 496.802 158.984C497.259 160.614 498.208 161.99 499.468 162.85Z" fill="#FFB8B8"/>
<path d="M508.6 158.891L508.491 151.295C508.483 150.511 508.724 149.752 509.167 149.167C509.61 148.582 510.223 148.214 510.884 148.135L548.663 143.837L580.139 131.672C581.089 131.304 582.092 131.164 583.088 131.257C584.085 131.351 585.056 131.677 585.945 132.217C586.833 132.757 587.622 133.499 588.265 134.402C588.908 135.304 589.393 136.348 589.69 137.473C589.988 138.599 590.093 139.782 589.999 140.956C589.905 142.129 589.615 143.269 589.144 144.308C588.673 145.348 588.031 146.267 587.257 147.012C586.482 147.757 585.589 148.313 584.63 148.647L549.791 160.807L511.314 161.959C510.733 161.976 510.163 161.766 509.692 161.364C509.221 160.961 508.876 160.387 508.709 159.73C508.64 159.457 508.604 159.175 508.6 158.891Z" fill="#3F3D56"/>
<path d="M564.507 354.727L557.293 354.726L553.861 321.924L564.508 321.925L564.507 354.727Z" fill="#FFB8B8"/>
<path d="M566.347 362.97L543.085 362.969V362.622C543.085 361.221 543.32 359.833 543.775 358.538C544.23 357.243 544.897 356.066 545.737 355.075C546.578 354.084 547.576 353.298 548.675 352.762C549.773 352.225 550.951 351.949 552.14 351.949H552.14L566.347 351.95L566.347 362.97Z" fill="#2F2E41"/>
<path d="M587.284 354.838L580.069 354.838L576.638 322.036L587.285 322.036L587.284 354.838Z" fill="#FFB8B8"/>
<path d="M589.386 362.251L566.125 362.25V361.903C566.124 360.501 566.359 359.113 566.814 357.818C567.269 356.524 567.936 355.347 568.776 354.356C569.617 353.365 570.615 352.579 571.714 352.042C572.812 351.506 573.99 351.23 575.179 351.23H575.179L589.386 351.231L589.386 362.251Z" fill="#2F2E41"/>
<path d="M590.533 222.162L588.81 342.647C588.805 343.029 588.732 343.405 588.598 343.752C588.464 344.099 588.27 344.41 588.029 344.665C587.788 344.92 587.505 345.114 587.198 345.234C586.891 345.354 586.566 345.398 586.243 345.364L577.801 344.459C577.248 344.4 576.73 344.111 576.339 343.645C575.949 343.178 575.711 342.564 575.668 341.91L570.726 266.755C570.714 266.578 570.646 266.414 570.534 266.295C570.423 266.176 570.277 266.112 570.127 266.115C569.977 266.119 569.834 266.19 569.727 266.314C569.619 266.438 569.557 266.605 569.551 266.782L567.081 343.658C567.058 344.375 566.8 345.054 566.361 345.552C565.923 346.05 565.337 346.328 564.729 346.328H555.675C555.076 346.328 554.499 346.058 554.062 345.574C553.626 345.09 553.362 344.428 553.326 343.722L546.988 221.468L584.648 210.37L590.533 222.162Z" fill="#2F2E41"/>
<path d="M563.216 109.028C571.198 109.028 577.669 101.4 577.669 91.9907C577.669 82.5814 571.198 74.9536 563.216 74.9536C555.234 74.9536 548.764 82.5814 548.764 91.9907C548.764 101.4 555.234 109.028 563.216 109.028Z" fill="#FFB8B8"/>
<path d="M545.698 225.746C545.448 225.461 545.248 225.12 545.11 224.743C544.972 224.367 544.899 223.961 544.895 223.551L543.92 141.392C543.862 137.212 544.928 133.118 546.967 129.698C549.005 126.278 551.911 123.708 555.267 122.356C556.621 115.115 563.827 114.208 568.028 114.316C569.077 114.343 570.105 114.667 571.024 115.262C571.944 115.856 572.728 116.703 573.311 117.731L576.323 123.056L582.961 127.643C586.032 129.757 588.455 132.966 589.88 136.808C591.305 140.65 591.657 144.926 590.887 149.019L589.865 154.499C586.266 173.893 586.609 194.016 590.864 213.224L592.921 222.467C593.028 222.948 593.036 223.453 592.944 223.939C592.852 224.424 592.663 224.877 592.392 225.259C592.122 225.641 591.777 225.941 591.389 226.135C591 226.328 590.577 226.409 590.156 226.371L587.768 226.154C587.148 226.099 586.564 225.788 586.119 225.275C585.675 224.763 585.397 224.082 585.336 223.353L584.941 218.694C584.933 218.608 584.9 218.529 584.845 218.471C584.791 218.413 584.721 218.382 584.648 218.382C584.575 218.382 584.505 218.413 584.451 218.471C584.396 218.529 584.362 218.608 584.355 218.694L583.973 223.205C583.908 223.967 583.608 224.674 583.13 225.192C582.651 225.711 582.028 226.004 581.378 226.015L547.584 226.628C547.57 226.628 547.556 226.629 547.542 226.629C546.853 226.631 546.191 226.314 545.698 225.746Z" fill="#3F3D56"/>
<path d="M564.347 101.811C564.406 104.219 565.825 105.613 567.566 106.874C569.307 108.136 571.343 108.683 573.337 109.21C573.605 109.378 573.905 109.462 574.208 109.453C574.512 109.444 574.808 109.343 575.068 109.16C575.329 108.977 575.545 108.718 575.696 108.408C575.847 108.098 575.927 107.747 575.93 107.39L577.759 99.1884C578.406 96.5686 578.877 93.8927 579.167 91.1856C579.607 85.9768 578.56 80.3734 575.476 76.6074C572.392 72.8413 567.043 71.5034 563.347 74.4051C558.961 67.8016 538.913 82.3913 543.859 86.9832C544.738 87.8001 546.083 86.7664 547.2 86.6662C548.317 86.566 549.568 86.7976 550.278 87.8193C551.204 89.154 550.801 91.1423 551.183 92.8073C551.341 93.3932 551.595 93.9364 551.932 94.4056C552.269 94.8748 552.682 95.2607 553.146 95.5411C553.61 95.8215 554.116 95.9908 554.636 96.0393C555.156 96.0878 555.679 96.0145 556.175 95.8236C557.098 95.2873 557.967 94.629 558.764 93.8615C559.62 93.1889 560.703 92.692 561.667 93.1161C562.938 93.6753 563.39 95.5096 563.504 97.103C563.698 98.6923 563.98 100.265 564.347 101.811Z" fill="#2F2E41"/>
<path d="M671.412 363.202H447.215C447.059 363.202 446.909 363.129 446.799 362.999C446.688 362.869 446.626 362.692 446.626 362.508C446.626 362.324 446.688 362.148 446.799 362.018C446.909 361.888 447.059 361.814 447.215 361.814H671.412C671.568 361.814 671.717 361.888 671.828 362.018C671.938 362.148 672 362.324 672 362.508C672 362.692 671.938 362.869 671.828 362.999C671.717 363.129 671.568 363.202 671.412 363.202Z" fill="#3F3D56"/>
<path opacity="0.2" d="M560.971 147.472L558.618 181.462L546.26 216.839L564.502 182.155L560.971 147.472Z" fill="black"/>
<path d="M543.371 230.013C544.046 229.375 544.593 228.57 544.975 227.655C545.357 226.74 545.565 225.737 545.582 224.718C545.6 223.698 545.428 222.686 545.078 221.754C544.729 220.821 544.21 219.99 543.558 219.319L551.43 196.334L540.719 198.884L534.886 220.32C534.003 221.685 533.575 223.385 533.684 225.097C533.792 226.809 534.43 228.415 535.476 229.609C536.522 230.804 537.904 231.505 539.359 231.58C540.814 231.654 542.241 231.097 543.371 230.013Z" fill="#FFB8B8"/>
<path d="M542.798 219.876L536.735 217.3C536.11 217.03 535.594 216.495 535.287 215.799C534.981 215.104 534.906 214.298 535.079 213.54L545.08 170.381L546.605 131.375C546.651 130.197 546.895 129.042 547.323 127.977C547.751 126.912 548.355 125.958 549.098 125.17C549.842 124.382 550.711 123.776 551.655 123.388C552.599 123 553.599 122.836 554.597 122.908C555.595 122.979 556.571 123.283 557.468 123.803C558.366 124.323 559.166 125.048 559.824 125.936C560.481 126.824 560.982 127.858 561.298 128.976C561.614 130.094 561.738 131.275 561.662 132.451L558.939 175.162L546.195 217.974C546.001 218.62 545.633 219.174 545.147 219.55C544.66 219.926 544.082 220.103 543.502 220.054C543.262 220.033 543.025 219.972 542.798 219.876Z" fill="#3F3D56"/>
<path d="M447.919 148.368H273.74C273.584 148.368 273.434 148.295 273.324 148.165C273.213 148.035 273.151 147.859 273.151 147.675C273.151 147.491 273.213 147.314 273.324 147.184C273.434 147.054 273.584 146.981 273.74 146.981H447.919C448.075 146.981 448.225 147.054 448.335 147.184C448.445 147.314 448.507 147.491 448.507 147.675C448.507 147.859 448.445 148.035 448.335 148.165C448.225 148.295 448.075 148.368 447.919 148.368Z" fill="#3F3D56"/>
<path d="M136.127 222.428C136.909 227.166 139.697 230.239 142.356 229.289C145.015 228.339 146.537 223.724 145.755 218.986C145.464 217.086 144.78 215.343 143.758 213.918L140.229 193.915L131.979 197.201L136.335 216.572C135.868 218.533 135.799 220.545 136.136 222.428H136.127Z" fill="#F8A8AB"/>
<path d="M117.532 353.948H127.215V337.348H117.532V353.948Z" fill="#F8A8AB"/>
<path d="M126.142 363.458C124.487 363.637 116.2 364.43 115.783 362.134C115.404 360.027 115.964 357.826 116.042 357.524C116.838 347.947 117.134 347.841 117.314 347.78C117.596 347.679 118.419 348.154 119.756 349.193L119.839 349.26L119.858 349.378C119.881 349.529 120.473 353.043 123.28 352.501C125.204 352.132 125.828 351.618 126.027 351.367C125.865 351.278 125.661 351.121 125.518 350.853C125.31 350.462 125.273 349.959 125.412 349.355C125.772 347.763 126.854 345.411 126.901 345.316L127.026 345.048L138.032 354.021L144.83 356.368C145.343 356.546 145.755 356.988 145.963 357.58C146.25 358.407 146.074 359.368 145.519 359.971C144.284 361.312 141.833 363.609 139.257 363.894C138.573 363.972 137.667 364 136.649 364C132.399 364 126.193 363.469 126.147 363.458H126.142Z" fill="#2F2E43"/>
<path d="M90.7049 353.948H100.389V337.348H90.7049V353.948Z" fill="#F8A8AB"/>
<path d="M99.3161 363.458C97.6606 363.637 89.3734 364.43 88.9572 362.134C88.578 360.027 89.1376 357.826 89.2162 357.524C90.0116 347.947 90.3076 347.841 90.4879 347.78C90.77 347.679 91.5932 348.154 92.9297 349.193L93.0129 349.26L93.0314 349.378C93.0545 349.529 93.6465 353.043 96.4536 352.501C98.3774 352.132 99.0017 351.618 99.2005 351.367C99.0387 351.278 98.8352 351.121 98.6918 350.853C98.4837 350.462 98.4467 349.959 98.5855 349.355C98.9462 347.763 100.028 345.411 100.075 345.316L100.199 345.048L111.206 354.021L118.004 356.368C118.517 356.546 118.929 356.988 119.137 357.58C119.424 358.407 119.248 359.368 118.693 359.971C117.458 361.312 115.007 363.609 112.431 363.894C111.747 363.972 110.84 364 109.823 364C105.573 364 99.367 363.469 99.3208 363.458H99.3161Z" fill="#2F2E43"/>
<path d="M98.5532 105.976L113.569 111.937V85.822H99.9452L98.5532 105.976Z" fill="#F8A8AB"/>
<path d="M111.709 93.0523C119.972 93.0523 126.67 84.9598 126.67 74.9772C126.67 64.9946 119.972 56.9021 111.709 56.9021C103.447 56.9021 96.749 64.9946 96.749 74.9772C96.749 84.9598 103.447 93.0523 111.709 93.0523Z" fill="#F8A8AB"/>
<path d="M107.899 76.391L109.962 79.4137L113.694 71.5244C113.694 71.5244 118.457 71.8205 118.457 67.5518C118.457 63.283 122.827 63.1601 122.827 63.1601C122.827 63.1601 129.01 50.1136 116.2 53.5499C116.2 53.5499 107.317 46.1969 102.896 52.4827C102.896 52.4827 89.3459 60.724 93.2258 75.078L99.6678 89.8733L101.129 86.5265C101.129 86.5265 100.246 72.4687 107.904 76.3854L107.899 76.391Z" fill="#2F2E43"/>
<path d="M0 362.989C0 363.358 0.245099 363.654 0.550317 363.654H248.082C248.387 363.654 248.632 363.358 248.632 362.989C248.632 362.62 248.387 362.324 248.082 362.324H0.550317C0.245099 362.324 0 362.62 0 362.989Z" fill="#484565"/>
<path d="M152.054 244.95L123.784 233.971C120.297 232.619 116.551 234.882 115.363 239.072L102.59 284.073C101.286 288.666 103.589 293.605 107.515 294.644L140.007 303.232C143.577 304.176 147.119 301.5 147.98 297.209L156.53 254.6C157.358 250.465 155.406 246.252 152.054 244.95Z" fill="#E2E3E4"/>
<path d="M149.186 254.443L147.364 254.052C148.53 246.051 150.139 224.718 143.641 222.103C140.492 220.835 137.32 223.053 134.217 228.702C131.78 233.144 130.355 238.061 130.341 238.111L128.593 237.379C128.843 236.513 134.785 216.181 144.224 219.98C153.552 223.735 149.367 253.186 149.182 254.437L149.186 254.443Z" fill="#2F2E43"/>
<path d="M127.752 191.971H77.2197L89.5857 346.009L103.922 344.891L104.629 233.96L113.652 282.643L116.292 344.053L129.356 344.891L130.873 275.033L127.752 191.971Z" fill="#2F2E43"/>
<path d="M97.7341 96.4272L114.845 101.456L129.472 177.829L127.752 191.971L84.9057 200.732L77.2197 191.971L97.7341 96.4272Z" fill="#2C698D"/>
<path d="M97.7065 92.6052L91.8565 100.534L79.99 103.975L59.7578 212.661L98.7424 220.64L109.601 109.948L97.7065 92.6052Z" fill="#2F2E43"/>
<path d="M114.835 96.5667L111.783 109.708L125.911 227.557H133.199L129.837 112.234L119.941 102.735L114.835 96.5667Z" fill="#2F2E43"/>
<path d="M123.969 110.776L129.837 112.234C129.837 112.234 132.409 113.374 133.343 122.202C134.272 131.03 134.439 160.676 134.439 160.676L144.419 208.504L133.084 213.019L127.747 187.283L123.964 110.77L123.969 110.776Z" fill="#2F2E43"/>
<path d="M114.179 104.64L111.34 110.932L117.019 184.729L110.392 192.166L104.237 185.305L108.736 111.217L102.179 104.64L104.472 102.634L106.84 106.065L111.576 104.925L113.467 101.489L114.179 104.64Z" fill="#2F2E43"/>
<path d="M86.2888 203.883C88.6704 207.766 92.2775 209.102 94.3447 206.872C96.4119 204.643 96.1575 199.687 93.7759 195.798C92.8417 194.228 91.607 193.01 90.1734 192.25L79.907 175.985L73.6084 183.215L84.3974 198.48C84.6702 200.497 85.3177 202.347 86.2888 203.877V203.883Z" fill="#F8A8AB"/>
<path d="M84.6793 105.758L79.99 103.976C79.99 103.976 73.6359 105.881 71.5318 115.469L61.2607 162.179L78.6813 199.123L87.9904 185.467L79.2223 151.552L84.6839 105.758H84.6793Z" fill="#2F2E43"/>
</svg>
