<svg width="120" height="36" viewBox="0 0 120 36" fill="none" xmlns="http://www.w3.org/2000/svg">
<path d="M4.63564 16.3644L6.94797 14.052L6.95038 14.0496H11.3006L9.56969 15.7806L9.12278 16.2275L7.35024 18L7.56977 18.2201L17.5 28.1498L27.6498 18L25.8766 16.2275L25.7518 16.102L23.6994 14.0496H28.0496L28.052 14.052L29.8644 15.8644L32 18L17.5 32.5L3 18L4.63564 16.3644ZM17.5 3.5L25.8784 11.8784H21.5282L17.5 7.85024L13.4718 11.8784H9.12158L17.5 3.5Z" fill="#096DD9"/>
<path d="M6.9453 14.0496L6.94771 14.052L9.12253 16.2274L17.4998 24.604L28.0542 14.0496H6.9453Z" fill="#1890FF"/>
<path d="M52.634 26.22C51.842 26.22 51.083 26.1247 50.357 25.934C49.631 25.736 48.9673 25.4463 48.366 25.065C47.772 24.6763 47.2807 24.196 46.892 23.624C46.5033 23.0447 46.265 22.37 46.177 21.6H48.949C49.0663 22.1353 49.2973 22.5863 49.642 22.953C49.994 23.3197 50.4377 23.5983 50.973 23.789C51.5083 23.9797 52.106 24.075 52.766 24.075C53.3527 24.075 53.899 23.987 54.405 23.811C54.911 23.635 55.3217 23.3747 55.637 23.03C55.9523 22.678 56.11 22.2453 56.11 21.732C56.11 21.1527 55.9047 20.7017 55.494 20.379C55.0907 20.049 54.5113 19.7887 53.756 19.598L50.643 18.861C49.8363 18.6777 49.1323 18.41 48.531 18.058C47.937 17.706 47.475 17.244 47.145 16.672C46.815 16.0927 46.65 15.385 46.65 14.549C46.65 13.5957 46.9103 12.7707 47.431 12.074C47.959 11.3773 48.674 10.842 49.576 10.468C50.478 10.0867 51.4937 9.896 52.623 9.896C53.9137 9.896 55.0027 10.1123 55.89 10.545C56.7773 10.9703 57.452 11.5423 57.914 12.261C58.376 12.9797 58.6107 13.768 58.618 14.626H55.912C55.8533 13.988 55.6663 13.4857 55.351 13.119C55.0357 12.745 54.636 12.4737 54.152 12.305C53.668 12.1363 53.1327 12.052 52.546 12.052C51.5047 12.052 50.731 12.2757 50.225 12.723C49.719 13.1703 49.466 13.6947 49.466 14.296C49.466 14.8607 49.653 15.308 50.027 15.638C50.401 15.968 50.973 16.2247 51.743 16.408L54.702 17.101C55.692 17.3063 56.4877 17.6217 57.089 18.047C57.6903 18.4723 58.1267 18.9783 58.398 19.565C58.6767 20.1443 58.816 20.786 58.816 21.49C58.816 22.414 58.552 23.2317 58.024 23.943C57.5033 24.6543 56.781 25.2117 55.857 25.615C54.933 26.0183 53.8587 26.22 52.634 26.22ZM66.4766 26.22C65.384 26.22 64.4196 25.989 63.5836 25.527C62.755 25.0577 62.106 24.3903 61.6366 23.525C61.1746 22.6597 60.9436 21.6293 60.9436 20.434C60.9436 19.268 61.1526 18.234 61.5706 17.332C61.996 16.4227 62.6083 15.7077 63.4076 15.187C64.2143 14.6663 65.186 14.406 66.3226 14.406C67.4446 14.406 68.387 14.6443 69.1496 15.121C69.9123 15.5977 70.4916 16.265 70.8876 17.123C71.2836 17.9737 71.4816 18.971 71.4816 20.115V20.929H63.6166C63.6093 21.5743 63.712 22.1463 63.9246 22.645C64.1373 23.1437 64.4526 23.536 64.8706 23.822C65.2886 24.1007 65.8056 24.24 66.4216 24.24C67.0523 24.24 67.5986 24.1007 68.0606 23.822C68.53 23.536 68.8416 23.1033 68.9956 22.524H71.4376C71.3056 23.316 70.9903 23.987 70.4916 24.537C70.0003 25.087 69.399 25.505 68.6876 25.791C67.9836 26.077 67.2466 26.22 66.4766 26.22ZM63.6056 19.268H68.9516C68.9516 18.718 68.8526 18.223 68.6546 17.783C68.464 17.3357 68.1743 16.9837 67.7856 16.727C67.397 16.463 66.9056 16.331 66.3116 16.331C65.725 16.331 65.23 16.474 64.8266 16.76C64.4233 17.046 64.119 17.4163 63.9136 17.871C63.7083 18.3183 63.6056 18.784 63.6056 19.268ZM78.9921 29.762C77.0781 29.762 75.6077 29.5053 74.5811 28.992C73.5544 28.4787 73.0411 27.7747 73.0411 26.88C73.0411 26.4767 73.1401 26.1393 73.3381 25.868C73.5361 25.5967 73.7707 25.373 74.0421 25.197C74.3134 25.021 74.5627 24.8853 74.7901 24.79C75.0174 24.6947 75.1641 24.625 75.2301 24.581C75.1054 24.5077 74.9404 24.4123 74.7351 24.295C74.5297 24.1777 74.3427 24.0163 74.1741 23.811C74.0127 23.6057 73.9321 23.338 73.9321 23.008C73.9321 22.6267 74.1117 22.2747 74.4711 21.952C74.8377 21.6293 75.3841 21.3983 76.1101 21.259C75.3987 20.9143 74.8524 20.4487 74.4711 19.862C74.0897 19.2753 73.8991 18.6667 73.8991 18.036C73.8991 17.288 74.1154 16.6463 74.5481 16.111C74.9881 15.5757 75.5967 15.165 76.3741 14.879C77.1514 14.593 78.0571 14.45 79.0911 14.45C79.8464 14.45 80.4734 14.5343 80.9721 14.703C81.4781 14.8717 81.9474 15.099 82.3801 15.385C82.5267 15.3263 82.7321 15.2457 82.9961 15.143C83.2601 15.033 83.5497 14.9157 83.8651 14.791C84.1804 14.659 84.4847 14.5343 84.7781 14.417C85.0714 14.2923 85.3171 14.1897 85.5151 14.109L85.5041 16.32L83.5351 16.672C83.6304 16.8847 83.7037 17.1157 83.7551 17.365C83.8137 17.6143 83.8431 17.8343 83.8431 18.025C83.8431 18.685 83.6561 19.2973 83.2821 19.862C82.9154 20.4193 82.3617 20.8667 81.6211 21.204C80.8877 21.5413 79.9711 21.71 78.8711 21.71C78.7611 21.71 78.6107 21.7063 78.4201 21.699C78.2294 21.6917 78.0754 21.6843 77.9581 21.677C77.3641 21.699 76.9571 21.7687 76.7371 21.886C76.5171 22.0033 76.4071 22.1317 76.4071 22.271C76.4071 22.469 76.5721 22.601 76.9021 22.667C77.2321 22.733 77.7601 22.7917 78.4861 22.843C78.7427 22.8577 79.0801 22.876 79.4981 22.898C79.9161 22.92 80.3817 22.9493 80.8951 22.986C82.1931 23.0667 83.1757 23.393 83.8431 23.965C84.5104 24.5297 84.8441 25.263 84.8441 26.165C84.8441 27.2137 84.3601 28.0753 83.3921 28.75C82.4241 29.4247 80.9574 29.762 78.9921 29.762ZM79.4431 28.189C80.4037 28.189 81.1151 28.057 81.5771 27.793C82.0391 27.529 82.2701 27.1403 82.2701 26.627C82.2701 26.231 82.1124 25.9083 81.7971 25.659C81.4817 25.4097 81.0124 25.263 80.3891 25.219L77.5181 25.043C77.2027 25.021 76.9021 25.0797 76.6161 25.219C76.3374 25.351 76.1101 25.538 75.9341 25.78C75.7581 26.0147 75.6701 26.275 75.6701 26.561C75.6701 27.0963 75.9744 27.4997 76.5831 27.771C77.1991 28.0497 78.1524 28.189 79.4431 28.189ZM78.9591 20.137C79.6557 20.137 80.2204 19.961 80.6531 19.609C81.0857 19.2497 81.3021 18.7437 81.3021 18.091C81.3021 17.4163 81.0857 16.892 80.6531 16.518C80.2204 16.1367 79.6557 15.946 78.9591 15.946C78.2477 15.946 77.6721 16.1367 77.2321 16.518C76.7994 16.8993 76.5831 17.4237 76.5831 18.091C76.5831 18.7217 76.7921 19.2203 77.2101 19.587C77.6281 19.9537 78.2111 20.137 78.9591 20.137ZM91.6257 26.22C91.0684 26.22 90.5294 26.1393 90.0087 25.978C89.4954 25.8093 89.0334 25.5673 88.6227 25.252C88.2121 24.9293 87.8857 24.5333 87.6437 24.064C87.4017 23.5947 87.2807 23.0483 87.2807 22.425V14.626H89.9647V22.117C89.9647 22.733 90.1591 23.239 90.5477 23.635C90.9437 24.031 91.5377 24.229 92.3297 24.229C93.0484 24.229 93.6241 24.042 94.0567 23.668C94.4894 23.2867 94.7057 22.7403 94.7057 22.029V14.626H97.3677V26H95.3107L95.0137 23.778C94.8744 24.4013 94.6287 24.8927 94.2767 25.252C93.9321 25.604 93.5251 25.8533 93.0557 26C92.5937 26.1467 92.1171 26.22 91.6257 26.22ZM100.508 26V14.626H103.071V17.09C103.255 16.5253 103.515 16.045 103.852 15.649C104.197 15.2457 104.6 14.9377 105.062 14.725C105.524 14.5123 106.027 14.406 106.569 14.406C106.701 14.406 106.83 14.4133 106.954 14.428C107.079 14.4427 107.171 14.4683 107.229 14.505V17.068C107.149 17.0313 107.042 17.0057 106.91 16.991C106.786 16.9763 106.676 16.969 106.58 16.969C106.03 16.925 105.543 16.947 105.117 17.035C104.699 17.123 104.344 17.2733 104.05 17.486C103.764 17.6913 103.548 17.9553 103.401 18.278C103.255 18.5933 103.181 18.9637 103.181 19.389V26H100.508ZM112.327 26.22C111.601 26.22 110.948 26.088 110.369 25.824C109.797 25.5527 109.346 25.1677 109.016 24.669C108.693 24.163 108.532 23.5507 108.532 22.832C108.532 21.578 108.983 20.632 109.885 19.994C110.794 19.356 112.239 19.0223 114.219 18.993L115.924 18.949V18.179C115.924 17.5777 115.744 17.1083 115.385 16.771C115.033 16.4263 114.483 16.2577 113.735 16.265C113.177 16.2723 112.671 16.4043 112.217 16.661C111.762 16.9103 111.461 17.332 111.315 17.926H109.038C109.082 17.1487 109.305 16.4997 109.709 15.979C110.119 15.451 110.68 15.0587 111.392 14.802C112.103 14.538 112.924 14.406 113.856 14.406C114.941 14.406 115.825 14.549 116.507 14.835C117.189 15.121 117.691 15.5353 118.014 16.078C118.336 16.6133 118.498 17.2623 118.498 18.025V26H116.243L116.023 23.954C115.619 24.812 115.102 25.406 114.472 25.736C113.848 26.0587 113.133 26.22 112.327 26.22ZM113.196 24.405C113.526 24.405 113.852 24.3463 114.175 24.229C114.497 24.1043 114.787 23.9393 115.044 23.734C115.308 23.5213 115.517 23.2867 115.671 23.03C115.832 22.7733 115.916 22.5057 115.924 22.227V20.434L114.527 20.456C113.837 20.4633 113.232 20.5367 112.712 20.676C112.198 20.8153 111.799 21.039 111.513 21.347C111.227 21.6477 111.084 22.051 111.084 22.557C111.084 23.1363 111.285 23.591 111.689 23.921C112.092 24.2437 112.594 24.405 113.196 24.405Z" fill="#272643"/>
</svg>
