<svg width="48" height="48" viewBox="0 0 48 48" fill="none" xmlns="http://www.w3.org/2000/svg">
<path d="M24 0.879883L44 7.87988V23.9999C44 32.2539 38.934 38.0239 34.208 41.6059C31.3572 43.7488 28.2286 45.4948 24.908 46.7959L24.734 46.8619L24.684 46.8799L24.67 46.8839L24.664 46.8859C24.662 46.8859 24.66 46.8859 24 44.9999L23.338 46.8879L23.33 46.8839L23.316 46.8799L23.266 46.8599L23.092 46.7959C22.1487 46.4311 21.2212 46.0268 20.312 45.5839C18.0168 44.4689 15.8335 43.1368 13.792 41.6059C9.068 38.0239 4 32.2539 4 23.9999V7.87988L24 0.879883ZM24 44.9999L23.338 46.8879L24 47.1199L24.662 46.8879L24 44.9999ZM24 42.8559L24.018 42.8479C26.7853 41.704 29.3973 40.2156 31.792 38.4179C36.068 35.1799 40 30.4459 40 23.9999V10.7199L24 5.11988L8 10.7199V23.9999C8 30.4459 11.932 35.1759 16.208 38.4199C18.608 40.221 21.2261 41.7115 24 42.8559ZM36.144 16.6859L22.002 30.8279L13.516 22.3439L16.346 19.5139L22 25.1719L33.314 13.8579L36.144 16.6859Z" fill="#F4C241"/>
</svg>
