<svg width="48" height="48" viewBox="0 0 48 48" fill="none" xmlns="http://www.w3.org/2000/svg">
<path d="M42 25.5V33H6V9H21V6H6C5.20435 6 4.44129 6.31607 3.87868 6.87868C3.31607 7.44129 3 8.20435 3 9V33C3 33.7956 3.31607 34.5587 3.87868 35.1213C4.44129 35.6839 5.20435 36 6 36H18V42H12V45H36V42H30V36H42C42.7957 36 43.5587 35.6839 44.1213 35.1213C44.6839 34.5587 45 33.7956 45 33V25.5H42ZM27 42H21V36H27V42Z" fill="#05E632"/>
<path d="M45 15V12H41.8485C41.6539 11.0614 41.2812 10.1688 40.7505 9.3705L42.9855 7.1355L40.8645 5.0145L38.6295 7.2495C37.8312 6.71883 36.9386 6.3461 36 6.1515V3H33V6.1515C32.0614 6.3461 31.1688 6.71883 30.3705 7.2495L28.1355 5.0145L26.0145 7.1355L28.2495 9.3705C27.7188 10.1688 27.3461 11.0614 27.1515 12H24V15H27.1515C27.3461 15.9386 27.7188 16.8312 28.2495 17.6295L26.0145 19.8645L28.1355 21.9855L30.3705 19.7505C31.1688 20.2812 32.0614 20.6539 33 20.8485V24H36V20.8485C36.9386 20.6539 37.8312 20.2812 38.6295 19.7505L40.8645 21.9855L42.9855 19.8645L40.7505 17.6295C41.2812 16.8312 41.6539 15.9386 41.8485 15H45ZM34.5 18C33.61 18 32.74 17.7361 31.9999 17.2416C31.2599 16.7471 30.6831 16.0443 30.3425 15.2221C30.0019 14.3998 29.9128 13.495 30.0865 12.6221C30.2601 11.7492 30.6887 10.9474 31.318 10.318C31.9474 9.68868 32.7492 9.2601 33.6221 9.08647C34.495 8.91283 35.3998 9.00195 36.2221 9.34254C37.0443 9.68314 37.7471 10.2599 38.2416 10.9999C38.7361 11.74 39 12.61 39 13.5C38.9988 14.6931 38.5243 15.837 37.6807 16.6807C36.837 17.5243 35.6931 17.9988 34.5 18Z" fill="#05E632"/>
</svg>
