<svg width="13" height="14" viewBox="0 0 13 14" fill="none" xmlns="http://www.w3.org/2000/svg">
<path d="M5 0.5C3.05 0.5 1.5 2.05 1.5 4C1.49658 4.57343 1.63492 5.13883 1.90272 5.6459C2.17052 6.15297 2.55948 6.58601 3.035 6.9065C1.255 7.673 0 9.446 0 11.5H1C1 9.3 2.8 7.5 5 7.5C6.95 7.5 8.5 5.95 8.5 4C8.5 2.05 6.95 0.5 5 0.5ZM5 1.5C6.4 1.5 7.5 2.6 7.5 4C7.5 5.4 6.4 6.5 5 6.5C3.6 6.5 2.5 5.4 2.5 4C2.5 2.6 3.6 1.5 5 1.5ZM9.05 7V8.05C8.75 8.1 8.45 8.25 8.2 8.4L7.45 7.65L6.75 8.35L7.5 9.1C7.3 9.35 7.2 9.65 7.15 10H6V11H7.05C7.1 11.3 7.25 11.6 7.4 11.9L6.65 12.65L7.35 13.35L8.1 12.6C8.35 12.75 8.65 12.9 8.95 12.95V14H9.95V12.95C10.25 12.9 10.55 12.75 10.8 12.6L11.55 13.35L12.25 12.65L11.5 11.9C11.7 11.65 11.8 11.35 11.85 11H13V10H11.95C11.9 9.7 11.75 9.4 11.6 9.1L12.35 8.35L11.65 7.65L10.9 8.4C10.65 8.25 10.35 8.1 10.05 8.05V7H9.05ZM9.5 9C10.35 9 11 9.65 11 10.5C11 11.35 10.35 12 9.5 12C8.65 12 8 11.35 8 10.5C8 9.65 8.65 9 9.5 9ZM9.5 10C9.43648 10.0012 9.37395 10.0159 9.3165 10.043C9.2568 10.0709 9.2026 10.1094 9.1565 10.1565C9.10938 10.2026 9.07094 10.2568 9.043 10.3165C9.01587 10.3739 9.00122 10.4365 9 10.5C9 10.6875 9.1405 10.875 9.3165 10.957C9.37395 10.9841 9.43648 10.9988 9.5 11C9.75 11 10 10.75 10 10.5C10 10.25 9.75 10 9.5 10Z" fill="#2C698D"/>
</svg>
