<svg width="32" height="30" viewBox="0 0 32 30" fill="none" xmlns="http://www.w3.org/2000/svg">
<rect x="0.5" y="0.5" width="31" height="29" rx="5.5" stroke="#D9D9D9"/>
<path d="M24.7165 13.82H10.3799L16.6433 8.03131C17.1439 7.56869 17.1439 6.80952 16.6433 6.3469C16.5246 6.23693 16.3835 6.14969 16.2283 6.09016C16.073 6.03064 15.9066 6 15.7385 6C15.5704 6 15.4039 6.03064 15.2486 6.09016C15.0934 6.14969 14.9523 6.23693 14.8336 6.3469L6.37535 14.164C6.25637 14.2737 6.16197 14.4041 6.09756 14.5476C6.03315 14.6911 6 14.8449 6 15.0003C6 15.1556 6.03315 15.3094 6.09756 15.4529C6.16197 15.5964 6.25637 15.7268 6.37535 15.8365L14.8336 23.6536C14.9524 23.7634 15.0935 23.8505 15.2487 23.91C15.404 23.9694 15.5704 24 15.7385 24C15.9065 24 16.0729 23.9694 16.2282 23.91C16.3834 23.8505 16.5245 23.7634 16.6433 23.6536C16.7621 23.5438 16.8564 23.4134 16.9207 23.2699C16.985 23.1264 17.0181 22.9726 17.0181 22.8173C17.0181 22.662 16.985 22.5082 16.9207 22.3647C16.8564 22.2213 16.7621 22.0909 16.6433 21.9811L10.3799 16.1924H24.7165C25.4224 16.1924 26 15.6586 26 15.0062C26 14.3538 25.4224 13.82 24.7165 13.82Z" fill="#434343"/>
</svg>
