<svg width="14" height="16" viewBox="0 0 14 16" fill="none" xmlns="http://www.w3.org/2000/svg">
<path d="M11.6667 7.00004V6.66671C11.6667 4.15271 11.6667 2.89537 10.8853 2.11471C10.104 1.33404 8.84733 1.33337 6.33333 1.33337C3.81933 1.33337 2.562 1.33337 1.78133 2.11471C1.00067 2.89604 1 4.15271 1 6.66671V10.6667C1 11.9094 1 12.5307 1.20267 13.02C1.33668 13.3436 1.53312 13.6376 1.78077 13.8853C2.02842 14.1329 2.32243 14.3294 2.646 14.4634C3.136 14.6667 3.75733 14.6667 5 14.6667M3.66667 4.66671H9M3.66667 7.33337H6.33333" stroke="#787878" stroke-linecap="round" stroke-linejoin="round"/>
<path d="M9.18867 12.6693C9.14867 12.0773 9.07867 11.444 8.788 10.728C8.53933 10.1173 8.60867 8.68066 10 8.68066C11.3913 8.68066 11.444 10.1173 11.196 10.7273C10.9053 11.444 10.8507 12.0773 10.812 12.6693M13 14.6667H7V13.836C7 13.5387 7.17733 13.2767 7.43533 13.1953L8.93867 12.718C9.04622 12.6838 9.156 12.6667 9.268 12.6667H10.732C10.844 12.6667 10.9538 12.6838 11.0613 12.718L12.5647 13.1953C12.8227 13.2767 13 13.5387 13 13.836V14.6667Z" stroke="#787878" stroke-linecap="round" stroke-linejoin="round"/>
</svg>
