<svg width="30" height="30" viewBox="0 0 30 30" fill="none" xmlns="http://www.w3.org/2000/svg">
<circle cx="15" cy="15" r="15" fill="#E3F6F5"/>
<path d="M7.91677 11.6667C7.91693 10.8766 8.12133 10.1 8.51012 9.41219C8.89891 8.7244 9.45889 8.14879 10.1357 7.74122C10.8125 7.33365 11.5832 7.10796 12.373 7.08605C13.1628 7.06414 13.9448 7.24676 14.6432 7.61618C15.3416 7.98561 15.9326 8.52929 16.3589 9.19447C16.7852 9.85964 17.0324 10.6237 17.0763 11.4126C17.1203 12.2014 16.9596 12.9882 16.6098 13.6967C16.2601 14.4051 15.7331 15.0111 15.0801 15.4558C16.4864 15.9716 17.7061 16.8964 18.5823 18.1113C19.4585 19.3261 19.9511 20.7753 19.9968 22.2725C19.9948 22.4339 19.9306 22.5883 19.8175 22.7035C19.7044 22.8187 19.5511 22.8857 19.3897 22.8905C19.2284 22.8954 19.0714 22.8377 18.9516 22.7295C18.8318 22.6213 18.7584 22.471 18.7468 22.31C18.6971 20.6862 18.0172 19.1456 16.8511 18.0145C15.6849 16.8835 14.1242 16.2509 12.4997 16.2509C10.8751 16.2509 9.31443 16.8835 8.14829 18.0145C6.98215 19.1456 6.30223 20.6862 6.2526 22.31C6.24426 22.4732 6.17233 22.6266 6.05224 22.7374C5.93214 22.8482 5.77342 22.9076 5.61008 22.9028C5.44674 22.898 5.29178 22.8295 5.17839 22.7118C5.06499 22.5941 5.00219 22.4367 5.00344 22.2733C5.0489 20.776 5.54144 19.3266 6.41767 18.1116C7.29391 16.8966 8.51372 15.9717 9.9201 15.4558C9.30267 15.0353 8.79738 14.4703 8.44822 13.8099C8.09906 13.1494 7.91661 12.4137 7.91677 11.6667ZM12.5001 8.33333C11.616 8.33333 10.7682 8.68452 10.1431 9.30965C9.51796 9.93477 9.16677 10.7826 9.16677 11.6667C9.16677 12.5507 9.51796 13.3986 10.1431 14.0237C10.7682 14.6488 11.616 15 12.5001 15C13.3842 15 14.232 14.6488 14.8571 14.0237C15.4822 13.3986 15.8334 12.5507 15.8334 11.6667C15.8334 10.7826 15.4822 9.93477 14.8571 9.30965C14.232 8.68452 13.3842 8.33333 12.5001 8.33333ZM19.4084 11.6667C19.2857 11.6667 19.1651 11.675 19.0468 11.6917C18.9642 11.7065 18.8794 11.7045 18.7976 11.6858C18.7157 11.6671 18.6385 11.6322 18.5705 11.583C18.5025 11.5338 18.445 11.4715 18.4016 11.3996C18.3582 11.3278 18.3298 11.2479 18.3179 11.1648C18.306 11.0818 18.311 10.9971 18.3326 10.916C18.3541 10.8349 18.3918 10.7589 18.4433 10.6927C18.4948 10.6264 18.5592 10.5713 18.6325 10.5304C18.7058 10.4896 18.7866 10.4639 18.8701 10.455C19.6989 10.3352 20.544 10.4943 21.2725 10.9074C22.0009 11.3205 22.5713 11.9641 22.8939 12.7369C23.2165 13.5097 23.273 14.3679 23.0545 15.1763C22.8359 15.9847 22.3548 16.6975 21.6868 17.2025C22.6688 17.6422 23.5025 18.3567 24.0875 19.2597C24.6725 20.1627 24.9836 21.2157 24.9834 22.2917C24.9834 22.4574 24.9176 22.6164 24.8004 22.7336C24.6832 22.8508 24.5242 22.9167 24.3584 22.9167C24.1927 22.9167 24.0337 22.8508 23.9165 22.7336C23.7993 22.6164 23.7334 22.4574 23.7334 22.2917C23.7337 21.3617 23.4343 20.4564 22.8795 19.71C22.3247 18.9637 21.544 18.416 20.6534 18.1483L20.2084 18.015V16.6183L20.5501 16.4442C21.0566 16.1876 21.4618 15.7679 21.7004 15.2527C21.9389 14.7375 21.9969 14.157 21.865 13.6048C21.733 13.0526 21.4188 12.561 20.9731 12.2094C20.5274 11.8577 19.9762 11.6665 19.4084 11.6667Z" fill="#2C698D"/>
</svg>
