<svg width="30" height="30" viewBox="0 0 30 30" fill="none" xmlns="http://www.w3.org/2000/svg">
<circle cx="15" cy="15" r="15" fill="#E3F6F5"/>
<g clip-path="url(#clip0_193_1163)">
<path d="M19.9998 17.5H18.3332V19.1667H19.9998M19.9998 14.1667H18.3332V15.8333H19.9998M21.6665 20.8333H14.9998V19.1667H16.6665V17.5H14.9998V15.8333H16.6665V14.1667H14.9998V12.5H21.6665M13.3332 10.8333H11.6665V9.16667H13.3332M13.3332 14.1667H11.6665V12.5H13.3332M13.3332 17.5H11.6665V15.8333H13.3332M13.3332 20.8333H11.6665V19.1667H13.3332M9.99984 10.8333H8.33317V9.16667H9.99984M9.99984 14.1667H8.33317V12.5H9.99984M9.99984 17.5H8.33317V15.8333H9.99984M9.99984 20.8333H8.33317V19.1667H9.99984M14.9998 10.8333V7.5H6.6665V22.5H23.3332V10.8333H14.9998Z" fill="#2C698D"/>
</g>
<defs>
<clipPath id="clip0_193_1163">
<rect width="20" height="20" fill="white" transform="translate(5 5)"/>
</clipPath>
</defs>
</svg>
