<svg width="16" height="20" viewBox="0 0 16 20" fill="none" xmlns="http://www.w3.org/2000/svg">
<path d="M15.53 6L10 0.47C9.85948 0.329308 9.66885 0.250175 9.47 0.25H7C6.27065 0.25 5.57118 0.539731 5.05546 1.05546C4.53973 1.57118 4.25 2.27065 4.25 3V4.25H3C2.27065 4.25 1.57118 4.53973 1.05546 5.05546C0.539731 5.57118 0.25 6.27065 0.25 7V17C0.25 17.7293 0.539731 18.4288 1.05546 18.9445C1.57118 19.4603 2.27065 19.75 3 19.75H10C10.7293 19.75 11.4288 19.4603 11.9445 18.9445C12.4603 18.4288 12.75 17.7293 12.75 17V15.75H13C13.7293 15.75 14.4288 15.4603 14.9445 14.9445C15.4603 14.4288 15.75 13.7293 15.75 13V6.5C15.7421 6.3116 15.6636 6.13309 15.53 6ZM10.25 2.81L13.19 5.75H10.25V2.81ZM11.25 17C11.25 17.3315 11.1183 17.6495 10.8839 17.8839C10.6495 18.1183 10.3315 18.25 10 18.25H3C2.66848 18.25 2.35054 18.1183 2.11612 17.8839C1.8817 17.6495 1.75 17.3315 1.75 17V7C1.75 6.66848 1.8817 6.35054 2.11612 6.11612C2.35054 5.8817 2.66848 5.75 3 5.75H4.25V13C4.25 13.7293 4.53973 14.4288 5.05546 14.9445C5.57118 15.4603 6.27065 15.75 7 15.75H11.25V17ZM13 14.25H7C6.66848 14.25 6.35054 14.1183 6.11612 13.8839C5.8817 13.6495 5.75 13.3315 5.75 13V3C5.75 2.66848 5.8817 2.35054 6.11612 2.11612C6.35054 1.8817 6.66848 1.75 7 1.75H8.75V6.5C8.75259 6.69811 8.83244 6.88737 8.97253 7.02747C9.11263 7.16756 9.30189 7.24741 9.5 7.25H14.25V13C14.25 13.3315 14.1183 13.6495 13.8839 13.8839C13.6495 14.1183 13.3315 14.25 13 14.25Z" fill="#787878"/>
</svg>
