<svg width="12" height="14" viewBox="0 0 12 14" fill="none" xmlns="http://www.w3.org/2000/svg">
<path d="M3.59984 1H1.73317C1.45027 1 1.17896 1.11238 0.978923 1.31242C0.778885 1.51246 0.666504 1.78377 0.666504 2.06667V5.26667C0.666504 5.40674 0.694094 5.54545 0.747699 5.67486C0.801304 5.80428 0.879874 5.92186 0.978923 6.02091C1.07797 6.11996 1.19556 6.19853 1.32498 6.25214C1.45439 6.30574 1.59309 6.33333 1.73317 6.33333H3.59984C3.73991 6.33333 3.87862 6.30574 4.00803 6.25214C4.13745 6.19853 4.25504 6.11996 4.35408 6.02091C4.45313 5.92186 4.5317 5.80428 4.58531 5.67486C4.63891 5.54545 4.6665 5.40674 4.6665 5.26667V2.06667C4.6665 1.78377 4.55412 1.51246 4.35408 1.31242C4.15405 1.11238 3.88273 1 3.59984 1ZM3.59984 9H1.73317C1.45027 9 1.17896 9.11238 0.978923 9.31242C0.778885 9.51246 0.666504 9.78377 0.666504 10.0667V11.9333C0.666504 12.2162 0.778885 12.4875 0.978923 12.6876C1.17896 12.8876 1.45027 13 1.73317 13H3.59984C3.88273 13 4.15405 12.8876 4.35408 12.6876C4.55412 12.4875 4.6665 12.2162 4.6665 11.9333V10.0667C4.6665 9.78377 4.55412 9.51246 4.35408 9.31242C4.15405 9.11238 3.88273 9 3.59984 9ZM10.2665 1H8.39984C8.11694 1 7.84563 1.11238 7.64559 1.31242C7.44555 1.51246 7.33317 1.78377 7.33317 2.06667V3.93333C7.33317 4.21623 7.44555 4.48754 7.64559 4.68758C7.84563 4.88762 8.11694 5 8.39984 5H10.2665C10.5494 5 10.8207 4.88762 11.0208 4.68758C11.2208 4.48754 11.3332 4.21623 11.3332 3.93333V2.06667C11.3332 1.78377 11.2208 1.51246 11.0208 1.31242C10.8207 1.11238 10.5494 1 10.2665 1ZM10.2665 7.66667H8.39984C8.11694 7.66667 7.84563 7.77905 7.64559 7.97909C7.44555 8.17912 7.33317 8.45044 7.33317 8.73333V11.9333C7.33317 12.2162 7.44555 12.4875 7.64559 12.6876C7.84563 12.8876 8.11694 13 8.39984 13H10.2665C10.5494 13 10.8207 12.8876 11.0208 12.6876C11.2208 12.4875 11.3332 12.2162 11.3332 11.9333V8.73333C11.3332 8.45044 11.2208 8.17912 11.0208 7.97909C10.8207 7.77905 10.5494 7.66667 10.2665 7.66667Z" stroke="#787878" stroke-miterlimit="10" stroke-linejoin="round"/>
</svg>
