<svg width="16" height="18" viewBox="0 0 16 18" fill="none" xmlns="http://www.w3.org/2000/svg">
<path d="M2.98971 17.5C2.47771 17.5 2.0419 17.3304 1.68229 16.9912C1.32267 16.652 1.14286 16.2413 1.14286 15.759V2.40805H0V1.33006H4.57143V0.5H11.4286V1.33006H16V2.40805H14.8571V15.759C14.8571 16.2549 14.6811 16.6692 14.3291 17.002C13.9771 17.3347 13.5375 17.5007 13.0103 17.5H2.98971ZM13.7143 2.40805H2.28571V15.759C2.28571 15.9524 2.35162 16.1112 2.48343 16.2355C2.61524 16.3598 2.784 16.422 2.98971 16.422H13.0114C13.1867 16.422 13.3478 16.353 13.4949 16.215C13.6419 16.077 13.715 15.9247 13.7143 15.758V2.40805ZM5.49486 14.266H6.63771V4.56404H5.49486V14.266ZM9.36229 14.266H10.5051V4.56404H9.36229V14.266Z" fill="#CF1322"/>
</svg>
