<svg width="16" height="18" viewBox="0 0 16 18" fill="none" xmlns="http://www.w3.org/2000/svg">
<path d="M15.5 8C15.5 13.018 10.012 16.403 8.425 17.276C8.29515 17.3487 8.14882 17.3869 8 17.3869C7.85118 17.3869 7.70485 17.3487 7.575 17.276C5.988 16.403 0.5 13.018 0.5 8C0.5 3.5 4.134 0.5 8 0.5C12 0.5 15.5 3.5 15.5 8Z" stroke="#2C698D"/>
<path d="M4.28586 8.78611L7.74286 12.2431C7.86386 12.3641 7.92486 12.4251 7.99986 12.4251C8.07486 12.4251 8.13586 12.3651 8.25686 12.2431L11.7139 8.78611C12.4619 8.03811 12.5779 6.86611 11.9909 5.98611C11.0759 4.61511 9.03686 4.68511 8.21886 6.11611L8.07786 6.36411C8.06997 6.37782 8.0586 6.38921 8.04491 6.39712C8.03122 6.40504 8.01568 6.40921 7.99986 6.40921C7.98404 6.40921 7.9685 6.40504 7.95481 6.39712C7.94112 6.38921 7.92975 6.37782 7.92186 6.36411L7.78086 6.11711C6.96286 4.68511 4.92386 4.61511 4.00886 5.98711C3.42186 6.86711 3.53886 8.03811 4.28586 8.78611Z" stroke="#2C698D"/>
</svg>
