<svg width="14" height="14" viewBox="0 0 14 14" fill="none" xmlns="http://www.w3.org/2000/svg">
<path d="M6.96683 11C7.20016 11 7.3975 10.9194 7.55883 10.758C7.72016 10.5967 7.80061 10.3996 7.80016 10.1667C7.79972 9.93382 7.71927 9.73649 7.55883 9.57471C7.39839 9.41293 7.20105 9.33249 6.96683 9.33338C6.73261 9.33427 6.5355 9.41493 6.3755 9.57538C6.2155 9.73582 6.13483 9.93293 6.1335 10.1667C6.13216 10.4005 6.21283 10.5978 6.3755 10.7587C6.53816 10.9196 6.73527 11 6.96683 11ZM6.36683 8.43338H7.60016C7.60016 8.06671 7.64194 7.77782 7.7255 7.56671C7.80905 7.3556 8.04505 7.06671 8.4335 6.70004C8.72239 6.41116 8.95016 6.13604 9.11683 5.87471C9.2835 5.61338 9.36683 5.2996 9.36683 4.93338C9.36683 4.31116 9.13905 3.83338 8.6835 3.50004C8.22794 3.16671 7.68905 3.00004 7.06683 3.00004C6.4335 3.00004 5.91972 3.16671 5.5255 3.50004C5.13128 3.83338 4.85616 4.23338 4.70016 4.70004L5.80016 5.13338C5.85572 4.93338 5.98083 4.71671 6.1755 4.48338C6.37016 4.25004 6.66727 4.13338 7.06683 4.13338C7.42239 4.13338 7.68905 4.23071 7.86683 4.42538C8.04461 4.62004 8.1335 4.83382 8.1335 5.06671C8.1335 5.28893 8.06683 5.49738 7.9335 5.69204C7.80016 5.88671 7.6335 6.06716 7.4335 6.23338C6.94461 6.66671 6.64461 6.99449 6.5335 7.21671C6.42239 7.43893 6.36683 7.84449 6.36683 8.43338ZM7.00016 13.6667C6.07794 13.6667 5.21128 13.4918 4.40016 13.142C3.58905 12.7923 2.8835 12.3172 2.2835 11.7167C1.6835 11.1163 1.20861 10.4107 0.85883 9.60004C0.509053 8.78938 0.333941 7.92271 0.333497 7.00004C0.333052 6.07738 0.508164 5.21071 0.85883 4.40004C1.2095 3.58938 1.68439 2.88382 2.2835 2.28338C2.88261 1.68293 3.58816 1.20804 4.40016 0.858711C5.21216 0.509377 6.07883 0.334266 7.00016 0.333377C7.9215 0.332489 8.78816 0.5076 9.60016 0.858711C10.4122 1.20982 11.1177 1.68471 11.7168 2.28338C12.3159 2.88204 12.7911 3.5876 13.1422 4.40004C13.4933 5.21249 13.6682 6.07915 13.6668 7.00004C13.6655 7.92093 13.4904 8.7876 13.1415 9.60004C12.7926 10.4125 12.3177 11.118 11.7168 11.7167C11.1159 12.3154 10.4104 12.7905 9.60016 13.142C8.78994 13.4936 7.92327 13.6685 7.00016 13.6667ZM7.00016 12.3334C8.48905 12.3334 9.75016 11.8167 10.7835 10.7834C11.8168 9.75004 12.3335 8.48893 12.3335 7.00004C12.3335 5.51116 11.8168 4.25004 10.7835 3.21671C9.75016 2.18338 8.48905 1.66671 7.00016 1.66671C5.51127 1.66671 4.25016 2.18338 3.21683 3.21671C2.1835 4.25004 1.66683 5.51116 1.66683 7.00004C1.66683 8.48893 2.1835 9.75004 3.21683 10.7834C4.25016 11.8167 5.51127 12.3334 7.00016 12.3334Z" fill="#787878"/>
</svg>
