<svg width="16" height="16" viewBox="0 0 16 16" fill="none" xmlns="http://www.w3.org/2000/svg">
<path d="M12 1C13.1 1 14 1.895 14 3V12C14 13.1 13.105 14 12 14H9.5C9.36739 14 9.24021 13.9473 9.14645 13.8536C9.05268 13.7598 9 13.6326 9 13.5C9 13.3674 9.05268 13.2402 9.14645 13.1464C9.24021 13.0527 9.36739 13 9.5 13H12C12.2652 13 12.5196 12.8946 12.7071 12.7071C12.8946 12.5196 13 12.2652 13 12V3C13 2.73478 12.8946 2.48043 12.7071 2.29289C12.5196 2.10536 12.2652 2 12 2H9.5C9.36739 2 9.24021 1.94732 9.14645 1.85355C9.05268 1.75979 9 1.63261 9 1.5C9 1.36739 9.05268 1.24021 9.14645 1.14645C9.24021 1.05268 9.36739 1 9.5 1H12Z" fill="#CF1322"/>
<path d="M4.14981 4.15012C4.24411 4.05904 4.37041 4.00865 4.50151 4.00978C4.63261 4.01092 4.75802 4.06351 4.85072 4.15621C4.94342 4.24892 4.99601 4.37432 4.99715 4.50542C4.99829 4.63652 4.94789 4.76282 4.85681 4.85712L2.70681 7.00712H9.49681C9.62942 7.00712 9.7566 7.0598 9.85036 7.15357C9.94413 7.24734 9.99681 7.37451 9.99681 7.50712C9.99681 7.63973 9.94413 7.76691 9.85036 7.86067C9.7566 7.95444 9.62942 8.00712 9.49681 8.00712H2.70681L4.85681 10.1571C4.94789 10.2514 4.99829 10.3777 4.99715 10.5088C4.99601 10.6399 4.94342 10.7653 4.85072 10.858C4.75802 10.9507 4.63261 11.0033 4.50151 11.0045C4.37041 11.0056 4.24411 10.9552 4.14981 10.8641L1.14981 7.86412C1.05608 7.77036 1.00342 7.6432 1.00342 7.51062C1.00342 7.37804 1.05608 7.25089 1.14981 7.15712L4.14981 4.15712V4.15012Z" fill="#CF1322"/>
</svg>
