<svg width="30" height="30" viewBox="0 0 30 30" fill="none" xmlns="http://www.w3.org/2000/svg">
<circle cx="15" cy="15" r="15" fill="#E3F6F5"/>
<path d="M17.5002 6.66669H10.0002C9.55814 6.66669 9.13421 6.84228 8.82165 7.15484C8.50909 7.4674 8.3335 7.89133 8.3335 8.33335V21.6667C8.3335 22.1087 8.50909 22.5326 8.82165 22.8452C9.13421 23.1578 9.55814 23.3334 10.0002 23.3334H20.0002C20.4422 23.3334 20.8661 23.1578 21.1787 22.8452C21.4912 22.5326 21.6668 22.1087 21.6668 21.6667V10.8334L17.5002 6.66669Z" stroke="#2C698D" stroke-width="1.5" stroke-linecap="round" stroke-linejoin="round"/>
<path d="M16.667 6.66669V10C16.667 10.442 16.8426 10.866 17.1551 11.1785C17.4677 11.4911 17.8916 11.6667 18.3337 11.6667H21.667" stroke="#2C698D" stroke-width="1.5" stroke-linecap="round" stroke-linejoin="round"/>
</svg>
