<svg width="42" height="46" viewBox="0 0 42 46" fill="none" xmlns="http://www.w3.org/2000/svg">
<rect width="41.501" height="45.25" transform="translate(0.500977 0.375)" fill="#FAFAFA"/>
<path d="M27.413 19.78C27.302 18.4964 26.7933 17.2794 25.9578 16.2987C25.1223 15.318 24.0016 14.6225 22.752 14.309V13.875C22.752 13.4772 22.5939 13.0956 22.3126 12.8143C22.0313 12.533 21.6498 12.375 21.252 12.375C20.8541 12.375 20.4726 12.533 20.1913 12.8143C19.91 13.0956 19.752 13.4772 19.752 13.875V14.309C18.5025 14.6224 17.3819 15.3178 16.5464 16.2983C15.7109 17.2788 15.2021 18.4956 15.091 19.779L14.838 21.812L14.837 21.827C14.7479 22.8985 14.2644 23.8987 13.48 24.634L13.466 24.646C13.222 24.876 12.922 25.156 12.736 25.704C12.566 26.2 12.502 26.874 12.502 27.89C12.502 28.262 12.569 28.621 12.756 28.934C12.949 29.258 13.228 29.458 13.516 29.58C13.787 29.695 14.08 29.747 14.338 29.78C14.512 29.802 14.71 29.819 14.9 29.835L15.15 29.857C15.38 29.879 15.6273 29.9007 15.892 29.922C15.7708 30.0074 15.6776 30.1267 15.6242 30.265C15.5708 30.4033 15.5596 30.5543 15.592 30.699C15.7307 31.323 16.0287 31.9004 16.457 32.375C16.8083 32.7687 17.239 33.0837 17.7207 33.2991C18.2024 33.5146 18.7243 33.6256 19.252 33.625C20.362 33.625 21.362 33.141 22.047 32.375C22.1133 32.3017 22.1645 32.216 22.1976 32.1229C22.2307 32.0297 22.245 31.9309 22.2398 31.8322C22.2346 31.7335 22.2099 31.6368 22.1672 31.5476C22.1245 31.4585 22.0646 31.3786 21.9909 31.3127C21.9172 31.2468 21.8312 31.1961 21.7379 31.1636C21.6445 31.131 21.5457 31.1173 21.447 31.123C21.3483 31.1288 21.2517 31.1541 21.1628 31.1973C21.0739 31.2405 20.9944 31.3009 20.929 31.375C20.516 31.836 19.919 32.125 19.252 32.125C18.8107 32.1265 18.3789 31.9976 18.0107 31.7546C17.6424 31.5116 17.3541 31.1652 17.182 30.759C17.1271 30.6339 17.0852 30.5036 17.057 30.37C17.024 30.2246 16.9485 30.0923 16.84 29.99C18.053 30.067 19.536 30.125 21.252 30.125C23.874 30.125 25.955 29.989 27.353 29.857L27.603 29.835C27.794 29.819 27.992 29.802 28.166 29.78C28.424 29.747 28.716 29.695 28.988 29.58C29.276 29.458 29.555 29.258 29.748 28.934C29.935 28.621 30.002 28.262 30.002 27.89C30.002 26.873 29.938 26.2 29.769 25.704C29.582 25.156 29.282 24.875 29.039 24.646L29.024 24.634C28.2395 23.8987 27.756 22.8985 27.667 21.827L27.666 21.812L27.413 19.78ZM16.583 19.935L16.584 19.92C16.681 18.7487 17.2149 17.6567 18.0796 16.8607C18.9443 16.0647 20.0766 15.6228 21.252 15.6228C22.4273 15.6228 23.5596 16.0647 24.4243 16.8607C25.289 17.6567 25.8229 18.7487 25.92 19.92L25.921 19.935L26.174 21.967C26.2976 23.4026 26.9476 24.7417 27.999 25.727C28.225 25.94 28.287 26.006 28.349 26.187C28.432 26.432 28.502 26.892 28.502 27.89C28.502 28.091 28.465 28.157 28.461 28.164L28.458 28.168L28.456 28.17C28.4396 28.1827 28.4214 28.1929 28.402 28.2C28.2651 28.2483 28.1226 28.2789 27.978 28.291C27.833 28.31 27.686 28.322 27.515 28.337L27.213 28.364C25.856 28.491 23.823 28.625 21.252 28.625C18.682 28.625 16.648 28.491 15.292 28.364L14.989 28.337C14.818 28.322 14.671 28.31 14.526 28.291C14.3813 28.2786 14.2388 28.2476 14.102 28.199C14.0826 28.1922 14.0644 28.1824 14.048 28.17L14.043 28.164C14.039 28.157 14.002 28.091 14.002 27.89C14.002 26.892 14.072 26.432 14.155 26.188C14.217 26.006 14.279 25.94 14.505 25.728C15.5563 24.7427 16.2063 23.4036 16.33 21.968L16.583 19.935Z" fill="#262626"/>
<g clip-path="url(#clip0_210_5177)">
<rect x="22" y="5" width="16" height="16" rx="8" fill="#40A9FF"/>
<path d="M29.6388 -3.006V-10.476L27.1488 -9.546V-10.572L30.1428 -11.682H30.7488V-3.006H29.6388ZM27.0108 -3V-3.984H33.2868V-3H27.0108ZM29.7768 17.132C29.2968 17.132 28.8488 17.042 28.4328 16.862C28.0208 16.678 27.6748 16.418 27.3948 16.082C27.1188 15.746 26.9488 15.344 26.8848 14.876H27.9648C28.0648 15.272 28.2728 15.594 28.5888 15.842C28.9048 16.086 29.2888 16.208 29.7408 16.208C30.2528 16.208 30.6908 16.074 31.0548 15.806C31.4228 15.538 31.6968 15.124 31.8768 14.564C32.0568 14.004 32.1248 13.286 32.0808 12.41C31.9808 12.714 31.8228 12.982 31.6068 13.214C31.3908 13.442 31.1308 13.622 30.8268 13.754C30.5228 13.886 30.1868 13.952 29.8188 13.952C29.2468 13.952 28.7428 13.84 28.3068 13.616C27.8708 13.392 27.5308 13.072 27.2868 12.656C27.0468 12.24 26.9268 11.742 26.9268 11.162C26.9268 10.582 27.0468 10.07 27.2868 9.626C27.5268 9.182 27.8708 8.834 28.3188 8.582C28.7668 8.33 29.2988 8.204 29.9148 8.204C30.5868 8.204 31.1688 8.378 31.6608 8.726C32.1528 9.07 32.5328 9.566 32.8008 10.214C33.0688 10.858 33.2028 11.632 33.2028 12.536C33.2028 13.508 33.0688 14.336 32.8008 15.02C32.5368 15.704 32.1488 16.228 31.6368 16.592C31.1288 16.952 30.5088 17.132 29.7768 17.132ZM29.9388 13.01C30.2588 13.01 30.5628 12.936 30.8508 12.788C31.1388 12.64 31.3728 12.444 31.5528 12.2C31.7368 11.952 31.8288 11.682 31.8288 11.39C31.8328 10.942 31.7568 10.548 31.6008 10.208C31.4448 9.864 31.2228 9.596 30.9348 9.404C30.6468 9.208 30.3108 9.11 29.9268 9.11C29.5748 9.11 29.2628 9.194 28.9908 9.362C28.7228 9.53 28.5108 9.764 28.3548 10.064C28.2028 10.364 28.1268 10.712 28.1268 11.108C28.1268 11.688 28.2808 12.15 28.5888 12.494C28.8968 12.838 29.3468 13.01 29.9388 13.01Z" fill="white"/>
</g>
<defs>
<clipPath id="clip0_210_5177">
<rect x="22" y="5" width="16" height="16" rx="8" fill="white"/>
</clipPath>
</defs>
</svg>
