<svg width="6" height="9" viewBox="0 0 6 9" fill="none" xmlns="http://www.w3.org/2000/svg">
<path fill-rule="evenodd" clip-rule="evenodd" d="M2.29274 0.964478C1.90222 0.573954 1.26905 0.573954 0.878529 0.964478C0.488004 1.355 0.488004 1.98817 0.878529 2.37869L2.99982 4.49999L0.878502 6.62131C0.487978 7.01183 0.487978 7.645 0.878502 8.03552C1.26903 8.42604 1.90219 8.42604 2.29272 8.03552L5.11503 5.2132C5.11709 5.21118 5.11913 5.20916 5.12117 5.20712C5.50559 4.8227 5.5116 4.20316 5.13919 3.81139C5.13328 3.80517 5.12727 3.79901 5.12117 3.79291C5.12116 3.7929 5.12115 3.79289 5.12114 3.79288C5.12107 3.79281 5.121 3.79274 5.12094 3.79267L2.29274 0.964478Z" fill="#8C8C8C"/>
</svg>
