<svg width="14" height="14" viewBox="0 0 14 14" fill="none" xmlns="http://www.w3.org/2000/svg">
<path d="M7.08788 9.26939C7.38239 9.26939 7.67402 9.21138 7.94611 9.09868C8.21821 8.98597 8.46544 8.82078 8.67369 8.61253C8.88194 8.40428 9.04713 8.15705 9.15984 7.88496C9.27254 7.61286 9.33055 7.32124 9.33055 7.02672C9.33055 6.73221 9.27254 6.44059 9.15984 6.16849C9.04713 5.8964 8.88194 5.64917 8.67369 5.44092C8.46544 5.23267 8.21821 5.06747 7.94611 4.95477C7.67402 4.84207 7.38239 4.78406 7.08788 4.78406C6.49309 4.78406 5.92266 5.02034 5.50208 5.44092C5.0815 5.8615 4.84521 6.43193 4.84521 7.02672C4.84521 7.62152 5.0815 8.19195 5.50208 8.61253C5.92266 9.03311 6.49309 9.26939 7.08788 9.26939Z" stroke="#787878" stroke-linecap="round" stroke-linejoin="round"/>
<path d="M12.9886 9.06268C12.7244 9.82227 12.3166 10.5239 11.7872 11.1293L10.3712 10.808C9.8342 11.2897 9.19615 11.645 8.5039 11.848L8.12123 13.234C7.76254 13.2983 7.39897 13.3316 7.03456 13.3333C6.57865 13.3339 6.12416 13.2824 5.6799 13.18L5.2739 11.7493C4.66882 11.5263 4.1126 11.1883 3.6359 10.754L2.2359 11.114C1.68068 10.4652 1.26393 9.70973 1.01123 8.89401L2.04456 7.74602C1.95026 7.15892 1.96585 6.55941 2.09056 5.97802L1.07123 4.91468C1.36754 4.08061 1.83719 3.31878 2.44923 2.67935L3.8959 3.03935C4.29425 2.71996 4.73802 2.46178 5.21256 2.27335L5.59523 0.857349C6.06787 0.734949 6.55369 0.670697 7.0419 0.666016C7.4319 0.666016 7.8219 0.702016 8.20523 0.772682L8.57256 2.18135C9.1259 2.36068 9.64456 2.63468 10.1032 2.99268L11.5579 2.61735C12.1448 3.20884 12.6078 3.91143 12.9199 4.68402L11.9332 5.75535C12.1203 6.48951 12.1359 7.2569 11.9786 7.99801L12.9886 9.06268Z" stroke="#787878" stroke-linecap="round" stroke-linejoin="round"/>
</svg>
