<svg width="1440" height="1026" viewBox="0 0 1440 1026" fill="none" xmlns="http://www.w3.org/2000/svg">
<rect width="1440" height="1026" fill="#272643"/>
<g opacity="0.3">
<path d="M193.319 696.189L233.884 658.993L233.927 658.955H310.242L279.877 686.798L272.037 693.987L240.941 722.499L244.793 726.04L418.997 885.765L597.053 722.499L565.947 693.987L563.757 691.969L527.752 658.955H604.068L604.11 658.993L635.904 688.146L673.369 722.499L418.997 955.742L164.626 722.499L193.319 696.189ZM418.997 489.256L565.979 624.029H489.663L418.997 559.233L348.331 624.029H272.016L418.997 489.256Z" fill="#096DD9"/>
<path d="M240.944 722.5L272.04 693.987L279.88 686.799L249.525 658.955H233.929L233.887 658.994L193.322 696.19L232.258 731.716L240.944 722.5Z" fill="url(#paint0_linear_109_873)"/>
<path d="M565.952 693.987L597.058 722.5L593.979 725.323L593.99 725.333L635.909 688.147L604.115 658.994L604.073 658.955H600.983L563.762 691.97L565.952 693.987Z" fill="url(#paint1_linear_109_873)"/>
<path d="M233.843 658.955L233.885 658.994L272.037 693.987L418.998 828.731L604.153 658.955H233.843Z" fill="#1890FF"/>
</g>
<g opacity="0.1">
<path d="M980.319 161.189L1020.88 123.993L1020.93 123.955H1097.24L1066.88 151.798L1059.04 158.987L1027.94 187.499L1031.79 191.04L1206 350.765L1384.05 187.499L1352.95 158.987L1350.76 156.969L1314.75 123.955H1391.07L1391.11 123.993L1422.9 153.146L1460.37 187.499L1206 420.742L951.626 187.499L980.319 161.189ZM1206 -45.7437L1352.98 89.0292H1276.66L1206 24.2331L1135.33 89.0292H1059.02L1206 -45.7437Z" fill="#096DD9"/>
<path d="M1027.94 187.5L1059.04 158.987L1066.88 151.799L1036.52 123.955H1020.93L1020.89 123.994L980.322 161.19L1019.26 196.716L1027.94 187.5Z" fill="url(#paint2_linear_109_873)"/>
<path d="M1352.95 158.987L1384.06 187.5L1380.98 190.323L1380.99 190.333L1422.91 153.147L1391.11 123.994L1391.07 123.955H1387.98L1350.76 156.969L1352.95 158.987Z" fill="url(#paint3_linear_109_873)"/>
<path d="M1020.84 123.955L1020.88 123.994L1059.04 158.987L1206 293.731L1391.15 123.955H1020.84Z" fill="#1890FF"/>
</g>
<defs>
<linearGradient id="paint0_linear_109_873" x1="263.311" y1="667.628" x2="214.303" y2="721.076" gradientUnits="userSpaceOnUse">
<stop stop-color="#023B95"/>
<stop offset="0.9637" stop-color="#096CD9" stop-opacity="0"/>
</linearGradient>
<linearGradient id="paint1_linear_109_873" x1="572.808" y1="668.258" x2="612.006" y2="716.835" gradientUnits="userSpaceOnUse">
<stop stop-color="#023B95"/>
<stop offset="1" stop-color="#096DD9" stop-opacity="0"/>
</linearGradient>
<linearGradient id="paint2_linear_109_873" x1="1050.31" y1="132.628" x2="1001.3" y2="186.076" gradientUnits="userSpaceOnUse">
<stop stop-color="#023B95"/>
<stop offset="0.9637" stop-color="#096CD9" stop-opacity="0"/>
</linearGradient>
<linearGradient id="paint3_linear_109_873" x1="1359.81" y1="133.257" x2="1399.01" y2="181.835" gradientUnits="userSpaceOnUse">
<stop stop-color="#023B95"/>
<stop offset="1" stop-color="#096DD9" stop-opacity="0"/>
</linearGradient>
</defs>
</svg>
