<svg width="14" height="14" viewBox="0 0 14 14" fill="none" xmlns="http://www.w3.org/2000/svg">
<path d="M3.3999 6.94865C6.7819 0.645987 10.9932 0.573321 12.6752 1.32465C13.4266 3.00732 13.3539 7.21799 7.05124 10.6C6.9859 10.224 6.62257 9.23999 5.69124 8.30865C4.7599 7.37732 3.7759 7.01399 3.3999 6.94865Z" stroke="#787878" stroke-linecap="round" stroke-linejoin="round"/>
<path d="M7.9 10.2999C9.126 10.8999 9.25667 11.9759 9.42667 12.9999C9.42667 12.9999 11.9933 11.1026 10.3513 8.49993M3.7 6.15127C3.1 4.92527 2.024 4.7946 1 4.6246C1 4.6246 2.898 2.05793 5.5 3.69993M3.012 8.94127C2.67067 9.28193 2.09067 10.2719 2.5 11.4999C3.72867 11.9093 4.718 11.3293 5.06 10.9886M10.5333 4.63327C10.5333 4.32385 10.4104 4.0271 10.1916 3.80831C9.97283 3.58952 9.67609 3.4666 9.36667 3.4666C9.05725 3.4666 8.7605 3.58952 8.54171 3.80831C8.32292 4.0271 8.2 4.32385 8.2 4.63327C8.2 4.94268 8.32292 5.23943 8.54171 5.45822C8.7605 5.67702 9.05725 5.79993 9.36667 5.79993C9.67609 5.79993 9.97283 5.67702 10.1916 5.45822C10.4104 5.23943 10.5333 4.94268 10.5333 4.63327Z" stroke="#787878" stroke-linecap="round" stroke-linejoin="round"/>
</svg>
