<svg width="18" height="18" viewBox="0 0 18 18" fill="none" xmlns="http://www.w3.org/2000/svg">
<g clip-path="url(#clip0_497_2046)">
<path d="M17.0357 15.1895V2.81049C17.5982 2.61161 18 2.07522 18 1.44643C18 0.646875 17.3531 0 16.5536 0C15.9248 0 15.3884 0.401786 15.1895 0.964286H2.81049C2.61161 0.401786 2.07522 0 1.44643 0C0.646875 0 0 0.646875 0 1.44643C0 2.07522 0.401786 2.61161 0.964286 2.81049V15.1895C0.401786 15.3884 0 15.9248 0 16.5536C0 17.3531 0.646875 18 1.44643 18C2.07522 18 2.61161 17.5982 2.81049 17.0357H15.1895C15.3884 17.5982 15.9248 18 16.5536 18C17.3531 18 18 17.3531 18 16.5536C18 15.9248 17.5982 15.3884 17.0357 15.1895ZM16.5536 0.964286C16.8208 0.964286 17.0357 1.17924 17.0357 1.44643C17.0357 1.71362 16.8208 1.92857 16.5536 1.92857C16.2864 1.92857 16.0714 1.71362 16.0714 1.44643C16.0714 1.17924 16.2864 0.964286 16.5536 0.964286ZM1.44643 17.0357C1.17924 17.0357 0.964286 16.8208 0.964286 16.5536C0.964286 16.2864 1.17924 16.0714 1.44643 16.0714C1.71362 16.0714 1.92857 16.2864 1.92857 16.5536C1.92857 16.8208 1.71362 17.0357 1.44643 17.0357ZM1.44643 1.92857C1.17924 1.92857 0.964286 1.71362 0.964286 1.44643C0.964286 1.17924 1.17924 0.964286 1.44643 0.964286C1.71362 0.964286 1.92857 1.17924 1.92857 1.44643C1.92857 1.71362 1.71362 1.92857 1.44643 1.92857ZM15.5893 15.5893H2.41071V2.41071H15.5893V15.5893ZM16.5536 17.0357C16.2864 17.0357 16.0714 16.8208 16.0714 16.5536C16.0714 16.2864 16.2864 16.0714 16.5536 16.0714C16.8208 16.0714 17.0357 16.2864 17.0357 16.5536C17.0357 16.8208 16.8208 17.0357 16.5536 17.0357Z" fill="#1890FF"/>
<path d="M4.49954 8.23905H13.4995C13.6763 8.23905 13.821 8.09441 13.821 7.91762V4.38191C13.821 4.20512 13.6763 4.06048 13.4995 4.06048H4.49954C4.32276 4.06048 4.17811 4.20512 4.17811 4.38191V7.91762C4.17811 8.09441 4.32276 8.23905 4.49954 8.23905ZM5.62454 5.50691H12.3745V6.79262H5.62454V5.50691ZM4.49954 13.9444H13.4995C13.6763 13.9444 13.821 13.7998 13.821 13.623V10.0873C13.821 9.91048 13.6763 9.76583 13.4995 9.76583H4.49954C4.32276 9.76583 4.17811 9.91048 4.17811 10.0873V13.623C4.17811 13.7998 4.32276 13.9444 4.49954 13.9444ZM5.62454 11.2123H12.3745V12.498H5.62454V11.2123Z" fill="#1890FF"/>
</g>
<defs>
<clipPath id="clip0_497_2046">
<rect width="18" height="18" fill="white"/>
</clipPath>
</defs>
</svg>
