<svg width="45" height="44" viewBox="0 0 45 44" fill="none" xmlns="http://www.w3.org/2000/svg">
<rect x="0.500977" width="44" height="44" rx="4" fill="#FAFAFA"/>
<g clip-path="url(#clip0_210_5175)">
<path d="M14.1974 14.7705H27.2331V18.4312H28.9296V13.7884C28.9296 13.3933 28.6104 13.0741 28.2153 13.0741H13.2153C12.8202 13.0741 12.501 13.3933 12.501 13.7884V30.217C12.501 30.612 12.8202 30.9312 13.2153 30.9312H25.3581V29.2348H14.1974V14.7705Z" fill="#262626"/>
<path d="M20.3202 16.2775H18.9675C18.8916 16.2775 18.8247 16.3266 18.7979 16.3981L15.9608 24.6124C15.9541 24.6302 15.9519 24.6503 15.9519 24.6704C15.9519 24.7686 16.0323 24.849 16.1305 24.849H17.3604C17.4363 24.849 17.5032 24.7999 17.53 24.7284L18.2599 22.6168H22.6394L20.4921 16.3981C20.4787 16.3632 20.4552 16.333 20.4245 16.3116C20.3939 16.2901 20.3576 16.2782 20.3202 16.2775ZM20.597 21.3668H18.6885L19.6439 18.6034L20.597 21.3668ZM31.9653 22.349H28.9296V20.2731C28.9296 20.1749 28.8492 20.0945 28.751 20.0945H27.501C27.4028 20.0945 27.3224 20.1749 27.3224 20.2731V22.349H24.2867C23.9899 22.349 23.751 22.5878 23.751 22.8847V26.8132C23.751 27.1101 23.9899 27.349 24.2867 27.349H27.3224V30.7418C27.3224 30.84 27.4028 30.9204 27.501 30.9204H28.751C28.8492 30.9204 28.9296 30.84 28.9296 30.7418V27.349H31.9653C32.2622 27.349 32.501 27.1101 32.501 26.8132V22.8847C32.501 22.5878 32.2622 22.349 31.9653 22.349ZM27.3224 25.7418H25.3582V23.9561H27.3224V25.7418ZM30.8939 25.7418H28.9296V23.9561H30.8939V25.7418Z" fill="#262626"/>
</g>
<defs>
<clipPath id="clip0_210_5175">
<rect width="20" height="20" fill="white" transform="translate(12.501 12)"/>
</clipPath>
</defs>
</svg>
