<svg width="16" height="16" viewBox="0 0 16 16" fill="none" xmlns="http://www.w3.org/2000/svg">
<g clip-path="url(#clip0_569_6651)">
<path d="M14.187 12.491C13.8501 11.6931 13.3613 10.9683 12.7477 10.3571C12.136 9.74405 11.4113 9.25529 10.6138 8.91778C10.6066 8.91421 10.5995 8.91242 10.5923 8.90885C11.7048 8.10528 12.4281 6.79635 12.4281 5.31956C12.4281 2.87313 10.4459 0.890991 7.99949 0.890991C5.55306 0.890991 3.57091 2.87313 3.57091 5.31956C3.57091 6.79635 4.29413 8.10528 5.40663 8.91064C5.39949 8.91421 5.39234 8.91599 5.3852 8.91956C4.5852 9.25706 3.86734 9.74099 3.25127 10.3589C2.63825 10.9706 2.14949 11.6952 1.81199 12.4928C1.48042 13.2736 1.3016 14.1107 1.2852 14.9589C1.28472 14.9779 1.28807 14.9969 1.29503 15.0146C1.302 15.0324 1.31245 15.0485 1.32576 15.0622C1.33907 15.0758 1.35498 15.0867 1.37255 15.0941C1.39012 15.1015 1.40899 15.1053 1.42806 15.1053H2.49949C2.57806 15.1053 2.64056 15.0428 2.64234 14.966C2.67806 13.5874 3.23163 12.2964 4.2102 11.3178C5.2227 10.3053 6.56734 9.74814 7.99949 9.74814C9.43163 9.74814 10.7763 10.3053 11.7888 11.3178C12.7673 12.2964 13.3209 13.5874 13.3566 14.966C13.3584 15.0446 13.4209 15.1053 13.4995 15.1053H14.5709C14.59 15.1053 14.6089 15.1015 14.6264 15.0941C14.644 15.0867 14.6599 15.0758 14.6732 15.0622C14.6865 15.0485 14.697 15.0324 14.7039 15.0146C14.7109 14.9969 14.7142 14.9779 14.7138 14.9589C14.6959 14.1053 14.5191 13.2749 14.187 12.491ZM7.99949 8.39099C7.17984 8.39099 6.40841 8.07135 5.82806 7.49099C5.2477 6.91064 4.92806 6.13921 4.92806 5.31956C4.92806 4.49992 5.2477 3.72849 5.82806 3.14813C6.40841 2.56778 7.17984 2.24813 7.99949 2.24813C8.81913 2.24813 9.59056 2.56778 10.1709 3.14813C10.7513 3.72849 11.0709 4.49992 11.0709 5.31956C11.0709 6.13921 10.7513 6.91064 10.1709 7.49099C9.59056 8.07135 8.81913 8.39099 7.99949 8.39099Z" fill="#787878"/>
</g>
<defs>
<clipPath id="clip0_569_6651">
<rect width="16" height="16" fill="white" transform="translate(0 0.000244141)"/>
</clipPath>
</defs>
</svg>
