<svg width="16" height="12" viewBox="0 0 16 12" fill="none" xmlns="http://www.w3.org/2000/svg">
<path d="M4 3.33325H6.66667" stroke="#787878" stroke-linecap="round" stroke-linejoin="round"/>
<path d="M13.8887 4H12.154C10.964 4 10 4.89533 10 6C10 7.10467 10.9647 8 12.1533 8H13.8887C13.9447 8 13.972 8 13.9953 7.99867C14.3553 7.97667 14.642 7.71067 14.6653 7.37667C14.6667 7.35533 14.6667 7.32933 14.6667 7.278V4.722C14.6667 4.67067 14.6667 4.64467 14.6653 4.62333C14.6413 4.28933 14.3553 4.02333 13.9953 4.00133C13.9727 4 13.9447 4 13.8887 4Z" stroke="#787878"/>
<path d="M13.9768 3.99996C13.9248 2.75196 13.7582 1.98663 13.2188 1.44796C12.4382 0.666626 11.1808 0.666626 8.66683 0.666626H6.66683C4.15283 0.666626 2.8955 0.666626 2.11483 1.44796C1.33416 2.22929 1.3335 3.48596 1.3335 5.99996C1.3335 8.51396 1.3335 9.77129 2.11483 10.552C2.89616 11.3326 4.15283 11.3333 6.66683 11.3333H8.66683C11.1808 11.3333 12.4382 11.3333 13.2188 10.552C13.7582 10.0133 13.9255 9.24796 13.9768 7.99996" stroke="#787878"/>
<path d="M11.9941 6H12.0008" stroke="#787878" stroke-linecap="round" stroke-linejoin="round"/>
</svg>
