<svg width="19" height="18" viewBox="0 0 19 18" fill="none" xmlns="http://www.w3.org/2000/svg">
<path d="M16.8541 7.53113H16.25V7.5H9.5V10.5H13.7386C13.1203 12.2464 11.4586 13.5 9.5 13.5C7.01487 13.5 5 11.4851 5 9C5 6.51487 7.01487 4.5 9.5 4.5C10.6471 4.5 11.6908 4.93275 12.4854 5.63962L14.6068 3.51825C13.2673 2.26987 11.4755 1.5 9.5 1.5C5.35812 1.5 2 4.85812 2 9C2 13.1419 5.35812 16.5 9.5 16.5C13.6419 16.5 17 13.1419 17 9C17 8.49713 16.9482 8.00625 16.8541 7.53113Z" fill="#FFC107"/>
<path d="M2.86475 5.50913L5.32887 7.31625C5.99562 5.6655 7.61037 4.5 9.5 4.5C10.6471 4.5 11.6907 4.93275 12.4854 5.63963L14.6067 3.51825C13.2672 2.26988 11.4755 1.5 9.5 1.5C6.61925 1.5 4.121 3.12638 2.86475 5.50913Z" fill="#FF3D00"/>
<path d="M9.50012 16.5C11.4374 16.5 13.1976 15.7586 14.5285 14.553L12.2072 12.5888C11.4542 13.1591 10.5182 13.5 9.50012 13.5C7.54937 13.5 5.89299 12.2561 5.26899 10.5203L2.82324 12.4046C4.06449 14.8335 6.58524 16.5 9.50012 16.5Z" fill="#4CAF50"/>
<path d="M16.8541 7.53113H16.25V7.5H9.5V10.5H13.7386C13.4416 11.3389 12.902 12.0622 12.206 12.5891C12.2064 12.5887 12.2067 12.5887 12.2071 12.5884L14.5284 14.5526C14.3641 14.7019 17 12.75 17 9C17 8.49712 16.9482 8.00625 16.8541 7.53113Z" fill="#1976D2"/>
</svg>
