<svg width="40" height="40" viewBox="0 0 40 40" fill="none" xmlns="http://www.w3.org/2000/svg">
<g clip-path="url(#clip0_156_3975)">
<path d="M28.4999 17.125C28.7276 16.8892 28.8536 16.5735 28.8507 16.2457C28.8479 15.918 28.7164 15.6045 28.4847 15.3727C28.2529 15.1409 27.9394 15.0095 27.6117 15.0066C27.2839 15.0038 26.9682 15.1298 26.7324 15.3575L17.6074 24.4825L13.4824 20.3575C13.2467 20.1298 12.9309 20.0038 12.6032 20.0066C12.2754 20.0095 11.9619 20.1409 11.7301 20.3727C11.4984 20.6045 11.3669 20.918 11.3641 21.2457C11.3612 21.5735 11.4872 21.8892 11.7149 22.125L16.7149 27.125C16.9493 27.3593 17.2672 27.491 17.5987 27.491C17.9301 27.491 18.248 27.3593 18.4824 27.125L28.4824 17.125H28.4999Z" fill="#09DD49"/>
<path fill-rule="evenodd" clip-rule="evenodd" d="M20 0C8.95 0 0 8.95 0 20C0 31.05 8.95 40 20 40C31.05 40 40 31.05 40 20C40 8.95 31.05 0 20 0ZM2.5 20C2.5 10.325 10.325 2.5 20 2.5C29.675 2.5 37.5 10.325 37.5 20C37.5 29.675 29.675 37.5 20 37.5C10.325 37.5 2.5 29.675 2.5 20Z" fill="#09DD49"/>
</g>
<defs>
<clipPath id="clip0_156_3975">
<rect width="40" height="40" fill="white"/>
</clipPath>
</defs>
</svg>
