<svg width="116" height="42" viewBox="0 0 116 42" fill="none" xmlns="http://www.w3.org/2000/svg">
<path d="M5.56267 19.0371L8.33747 16.2623L8.34036 16.2594H13.5606L11.4835 18.3365L10.9472 18.8728L8.8202 20.9999L9.08363 21.264L20.9999 33.1796L33.1796 20.9999L31.0518 18.8728L30.902 18.7223L28.4392 16.2594H33.6594L33.6623 16.2623L35.8372 18.4371L38.3999 20.9999L20.9999 38.3998L3.59991 20.9999L5.56267 19.0371ZM20.9999 3.59985L31.054 13.654H25.8337L20.9999 8.82014L16.1661 13.654H10.9458L20.9999 3.59985Z" fill="#096DD9"/>
<path d="M8.82055 21L10.9476 18.8729L11.4839 18.3366L9.40749 16.2595H8.34071L8.33781 16.2624L5.56302 19.0372L8.22636 21.6875L8.82055 21Z" fill="url(#paint0_linear_97_744)"/>
<path d="M31.0521 18.8729L33.1799 21L32.9692 21.2106L32.97 21.2113L35.8374 18.4372L33.6626 16.2624L33.6597 16.2595H33.4484L30.9023 18.7224L31.0521 18.8729Z" fill="url(#paint1_linear_97_744)"/>
<path d="M8.33485 16.2595L8.33774 16.2624L10.9475 18.8729L21.0002 28.9249L33.6655 16.2595H8.33485Z" fill="#1890FF"/>
<path d="M56.3395 17.4531C56.2732 16.8329 55.9938 16.3499 55.5014 16.0043C55.0137 15.6586 54.3793 15.4858 53.598 15.4858C53.0488 15.4858 52.5777 15.5687 52.1847 15.7344C51.7917 15.9001 51.491 16.125 51.2827 16.4091C51.0743 16.6932 50.9678 17.0175 50.9631 17.3821C50.9631 17.6851 51.0317 17.9479 51.169 18.1705C51.3111 18.393 51.5028 18.5824 51.7443 18.7386C51.9858 18.8902 52.2533 19.018 52.5469 19.1222C52.8404 19.2263 53.1364 19.3139 53.4347 19.3849L54.7983 19.7259C55.3475 19.8537 55.8755 20.0265 56.3821 20.2443C56.8935 20.4621 57.3504 20.7367 57.7528 21.0682C58.16 21.3996 58.482 21.7997 58.7188 22.2685C58.9555 22.7372 59.0739 23.2865 59.0739 23.9162C59.0739 24.7685 58.8561 25.5189 58.4205 26.1676C57.9848 26.8116 57.3551 27.3158 56.5312 27.6804C55.7121 28.0402 54.7202 28.2202 53.5554 28.2202C52.4238 28.2202 51.4413 28.045 50.608 27.6946C49.7794 27.3442 49.1307 26.8329 48.6619 26.1605C48.1979 25.4882 47.947 24.669 47.9091 23.7031H50.5014C50.5393 24.2098 50.6955 24.6312 50.9702 24.9673C51.2448 25.3035 51.6023 25.5545 52.0426 25.7202C52.4877 25.8859 52.9848 25.9688 53.5341 25.9688C54.107 25.9688 54.6089 25.8835 55.0398 25.7131C55.4754 25.5379 55.8163 25.2964 56.0625 24.9886C56.3087 24.6761 56.4342 24.3116 56.4389 23.8949C56.4342 23.5161 56.3229 23.2036 56.1051 22.9574C55.8873 22.7064 55.5819 22.4981 55.1889 22.3324C54.8007 22.1619 54.3461 22.0104 53.8253 21.8778L52.1705 21.4517C50.9725 21.1439 50.0256 20.6776 49.3295 20.0526C48.6383 19.4228 48.2926 18.5871 48.2926 17.5455C48.2926 16.6884 48.5246 15.938 48.9886 15.294C49.4574 14.6501 50.0942 14.1506 50.8991 13.7955C51.7041 13.4356 52.6155 13.2557 53.6335 13.2557C54.6657 13.2557 55.5701 13.4356 56.3466 13.7955C57.1278 14.1506 57.741 14.6454 58.1861 15.2798C58.6312 15.9096 58.8608 16.634 58.875 17.4531H56.3395ZM66.1388 28.2131C65.0451 28.2131 64.1005 27.9858 63.305 27.5312C62.5143 27.072 61.9059 26.4233 61.4798 25.5852C61.0536 24.7424 60.8406 23.7505 60.8406 22.6094C60.8406 21.4872 61.0536 20.5024 61.4798 19.6548C61.9106 18.8026 62.512 18.1397 63.2837 17.6662C64.0555 17.188 64.9622 16.9489 66.0039 16.9489C66.6763 16.9489 67.3107 17.0578 67.9073 17.2756C68.5086 17.4886 69.0389 17.8201 69.4982 18.2699C69.9622 18.7197 70.3268 19.2926 70.592 19.9886C70.8571 20.6799 70.9897 21.5038 70.9897 22.4602V23.2486H62.0479V21.5156H68.5252C68.5205 21.0232 68.4139 20.5852 68.2056 20.2017C67.9973 19.8134 67.7061 19.508 67.332 19.2855C66.9627 19.063 66.5318 18.9517 66.0394 18.9517C65.5138 18.9517 65.0522 19.0795 64.6545 19.3352C64.2567 19.5862 63.9466 19.9176 63.7241 20.3295C63.5063 20.7367 63.395 21.1842 63.3903 21.6719V23.1847C63.3903 23.8191 63.5063 24.3636 63.7383 24.8182C63.9703 25.268 64.2946 25.6136 64.7113 25.8551C65.128 26.0919 65.6156 26.2102 66.1744 26.2102C66.5484 26.2102 66.887 26.1581 67.19 26.054C67.493 25.9451 67.7558 25.7865 67.9783 25.5781C68.2009 25.3698 68.369 25.1117 68.4826 24.804L70.8832 25.0739C70.7317 25.7083 70.4428 26.2623 70.0167 26.7358C69.5953 27.2045 69.0555 27.5691 68.3974 27.8295C67.7392 28.0852 66.9864 28.2131 66.1388 28.2131ZM77.9091 32.3182C76.9858 32.3182 76.1927 32.1927 75.5298 31.9418C74.867 31.6955 74.3343 31.3641 73.9318 30.9474C73.5294 30.5308 73.25 30.0691 73.0938 29.5625L75.4091 29.0014C75.5133 29.2145 75.6648 29.4252 75.8636 29.6335C76.0625 29.8466 76.33 30.0218 76.6662 30.1591C77.0071 30.3011 77.4356 30.3722 77.9517 30.3722C78.6809 30.3722 79.2846 30.1946 79.7628 29.8395C80.241 29.4891 80.4801 28.9115 80.4801 28.1065V26.0398H80.3523C80.2197 26.3049 80.0256 26.5772 79.7699 26.8565C79.5189 27.1359 79.1851 27.3703 78.7685 27.5597C78.3565 27.7491 77.8381 27.8438 77.2131 27.8438C76.375 27.8438 75.6151 27.6473 74.9332 27.2543C74.2562 26.8565 73.7164 26.2647 73.3139 25.4787C72.9162 24.688 72.7173 23.6984 72.7173 22.5099C72.7173 21.312 72.9162 20.3011 73.3139 19.4773C73.7164 18.6487 74.2585 18.0213 74.9403 17.5952C75.6222 17.1643 76.3821 16.9489 77.2202 16.9489C77.8594 16.9489 78.3849 17.0578 78.7969 17.2756C79.2135 17.4886 79.545 17.7467 79.7912 18.0497C80.0374 18.348 80.2244 18.6297 80.3523 18.8949H80.4943V17.0909H83.0298V28.1776C83.0298 29.1103 82.8073 29.8821 82.3622 30.4929C81.9171 31.1037 81.3087 31.5606 80.5369 31.8636C79.7652 32.1667 78.8892 32.3182 77.9091 32.3182ZM77.9304 25.8267C78.4749 25.8267 78.9389 25.6941 79.3224 25.429C79.706 25.1638 79.9972 24.7827 80.196 24.2855C80.3949 23.7884 80.4943 23.1918 80.4943 22.4957C80.4943 21.8092 80.3949 21.2079 80.196 20.6918C80.0019 20.1757 79.7131 19.7756 79.3295 19.4915C78.9508 19.2027 78.4844 19.0582 77.9304 19.0582C77.3575 19.0582 76.8793 19.2074 76.4957 19.5057C76.1122 19.804 75.8234 20.2135 75.6293 20.7344C75.4351 21.2505 75.3381 21.8376 75.3381 22.4957C75.3381 23.1634 75.4351 23.7481 75.6293 24.25C75.8281 24.7472 76.1193 25.1354 76.5028 25.4148C76.8911 25.6894 77.367 25.8267 77.9304 25.8267ZM92.6179 23.4119V17.0909H95.1889V28H92.696V26.0611H92.5824C92.3362 26.6719 91.9313 27.1714 91.3679 27.5597C90.8092 27.9479 90.1203 28.142 89.3011 28.142C88.5862 28.142 87.9541 27.9834 87.4048 27.6662C86.8603 27.3442 86.4342 26.8778 86.1264 26.267C85.8187 25.6515 85.6648 24.9081 85.6648 24.0369V17.0909H88.2358V23.6392C88.2358 24.3305 88.4252 24.8797 88.804 25.2869C89.1828 25.6941 89.6799 25.8977 90.2955 25.8977C90.6742 25.8977 91.0412 25.8054 91.3963 25.6207C91.7514 25.4361 92.0426 25.1615 92.2699 24.7969C92.5019 24.4276 92.6179 23.9659 92.6179 23.4119ZM97.8327 28V17.0909H100.326V18.9091H100.439C100.638 18.2794 100.979 17.794 101.462 17.4531C101.95 17.1075 102.506 16.9347 103.131 16.9347C103.273 16.9347 103.432 16.9418 103.607 16.956C103.787 16.9654 103.936 16.982 104.054 17.0057V19.3707C103.945 19.3329 103.773 19.2997 103.536 19.2713C103.304 19.2382 103.079 19.2216 102.861 19.2216C102.392 19.2216 101.971 19.3234 101.597 19.527C101.228 19.7259 100.936 20.0028 100.723 20.358C100.51 20.7131 100.404 21.1226 100.404 21.5866V28H97.8327ZM108.706 28.2202C108.015 28.2202 107.392 28.0971 106.838 27.8509C106.289 27.5999 105.854 27.2306 105.532 26.7429C105.214 26.2552 105.056 25.6539 105.056 24.9389C105.056 24.3234 105.169 23.8144 105.397 23.4119C105.624 23.0095 105.934 22.6875 106.327 22.446C106.72 22.2045 107.163 22.0223 107.655 21.8991C108.152 21.7713 108.666 21.679 109.196 21.6222C109.836 21.5559 110.354 21.4967 110.752 21.4446C111.15 21.3878 111.438 21.3026 111.618 21.1889C111.803 21.0705 111.895 20.8883 111.895 20.642V20.5994C111.895 20.0644 111.737 19.6501 111.419 19.3565C111.102 19.063 110.645 18.9162 110.049 18.9162C109.419 18.9162 108.919 19.0535 108.55 19.3281C108.185 19.6027 107.939 19.9271 107.811 20.3011L105.411 19.9602C105.6 19.2973 105.913 18.7434 106.348 18.2983C106.784 17.8485 107.317 17.5123 107.946 17.2898C108.576 17.0625 109.272 16.9489 110.034 16.9489C110.56 16.9489 111.083 17.0104 111.604 17.1335C112.125 17.2566 112.601 17.4602 113.032 17.7443C113.462 18.0237 113.808 18.4048 114.069 18.8878C114.334 19.3707 114.466 19.9744 114.466 20.6989V28H111.995V26.5014H111.909C111.753 26.8045 111.533 27.0885 111.249 27.3537C110.97 27.6141 110.617 27.8248 110.191 27.9858C109.769 28.142 109.275 28.2202 108.706 28.2202ZM109.374 26.331C109.89 26.331 110.337 26.2292 110.716 26.0256C111.095 25.8172 111.386 25.5426 111.59 25.2017C111.798 24.8608 111.902 24.4891 111.902 24.0866V22.8011C111.822 22.8674 111.685 22.929 111.49 22.9858C111.301 23.0426 111.088 23.0923 110.851 23.1349C110.614 23.1776 110.38 23.2154 110.148 23.2486C109.916 23.2817 109.715 23.3101 109.544 23.3338C109.161 23.3859 108.818 23.4711 108.515 23.5895C108.212 23.7079 107.972 23.8736 107.797 24.0866C107.622 24.295 107.534 24.5649 107.534 24.8963C107.534 25.3698 107.707 25.7273 108.053 25.9688C108.399 26.2102 108.839 26.331 109.374 26.331Z" fill="white"/>
<defs>
<linearGradient id="paint0_linear_97_744" x1="10.3506" y1="16.9065" x2="6.68075" y2="20.5763" gradientUnits="userSpaceOnUse">
<stop stop-color="#023B95"/>
<stop offset="0.9637" stop-color="#096CD9" stop-opacity="0"/>
</linearGradient>
<linearGradient id="paint1_linear_97_744" x1="31.5211" y1="16.9535" x2="34.4885" y2="20.3256" gradientUnits="userSpaceOnUse">
<stop stop-color="#023B95"/>
<stop offset="1" stop-color="#096DD9" stop-opacity="0"/>
</linearGradient>
</defs>
</svg>
