<svg width="510" height="467" viewBox="0 0 510 467" fill="none" xmlns="http://www.w3.org/2000/svg">
<path d="M29.3196 207.189L69.8844 169.993L69.9268 169.955H146.242L115.877 197.798L108.037 204.987L76.9415 233.499L80.7927 237.04L254.997 396.765L433.053 233.499L401.947 204.987L399.757 202.969L363.752 169.955H440.068L440.11 169.993L471.904 199.146L509.369 233.499L254.997 466.742L0.625854 233.499L29.3196 207.189ZM254.997 0.256348L401.979 135.029H325.663L254.997 70.2331L184.331 135.029H108.016L254.997 0.256348Z" fill="#096DD9"/>
<path d="M76.9444 233.5L108.04 204.987L115.88 197.799L85.525 169.955H69.9296L69.8873 169.994L29.3224 207.19L68.2579 242.716L76.9444 233.5Z" fill="url(#paint0_linear_97_738)"/>
<path d="M401.952 204.987L433.058 233.5L429.979 236.323L429.99 236.333L471.909 199.147L440.115 169.994L440.073 169.955H436.983L399.762 202.969L401.952 204.987Z" fill="url(#paint1_linear_97_738)"/>
<path d="M69.8425 169.955L69.8848 169.994L108.037 204.987L254.998 339.731L440.153 169.955H69.8425Z" fill="#1890FF"/>
<defs>
<linearGradient id="paint0_linear_97_738" x1="99.3117" y1="178.628" x2="50.3032" y2="232.076" gradientUnits="userSpaceOnUse">
<stop stop-color="#023B95"/>
<stop offset="0.9637" stop-color="#096CD9" stop-opacity="0"/>
</linearGradient>
<linearGradient id="paint1_linear_97_738" x1="408.808" y1="179.257" x2="448.006" y2="227.835" gradientUnits="userSpaceOnUse">
<stop stop-color="#023B95"/>
<stop offset="1" stop-color="#096DD9" stop-opacity="0"/>
</linearGradient>
</defs>
</svg>
