<svg width="19" height="18" viewBox="0 0 19 18" fill="none" xmlns="http://www.w3.org/2000/svg">
<path d="M17 4.42863C16.4488 4.67278 15.8559 4.83568 15.2306 4.91276C15.8663 4.53529 16.3555 3.93326 16.585 3.22206C15.9901 3.57079 15.331 3.82701 14.6298 3.962C14.0698 3.3683 13.2711 3 12.3862 3C10.6864 3 9.30856 4.36572 9.30856 6.04975C9.30856 6.28806 9.33647 6.52012 9.38897 6.74552C6.83168 6.6172 4.56354 5.40147 3.04616 3.55662C2.77952 4.00742 2.62953 4.53529 2.62953 5.09233C2.62953 6.15099 3.17157 7.08299 3.99817 7.63211C3.49363 7.6167 3.01866 7.47629 2.60287 7.25131C2.60287 7.26048 2.60287 7.27423 2.60287 7.28714C2.60287 8.7666 3.66403 9.99858 5.07058 10.279C4.81352 10.3494 4.54187 10.3886 4.26189 10.3886C4.06316 10.3886 3.86943 10.3661 3.68194 10.3323C4.07358 11.5414 5.20973 12.425 6.55587 12.4513C5.50262 13.2679 4.17607 13.757 2.73369 13.757C2.48454 13.757 2.24081 13.7429 2 13.7137C3.3628 14.5765 4.981 15.0823 6.71794 15.0823C12.3779 15.0823 15.4743 10.4344 15.4743 6.40222C15.4743 6.27014 15.4701 6.13849 15.4639 6.0085C16.068 5.58187 16.5888 5.04358 17 4.42863Z" fill="#03A9F4"/>
</svg>
